<svg width="1379" height="927" viewBox="0 0 1379 927" fill="none" xmlns="http://www.w3.org/2000/svg">
<g clip-path="url(#clip0_5451_8)">
<rect x="155.513" y="576.595" width="324.519" height="239.312" fill="#7700D1"/>
<path d="M420.142 653.068L572.825 658.589L629.064 712.476L707.132 789.176L720.082 808.449L725.262 830.082L720.082 865.801L689.387 870.06L681.277 872.494L420.142 878.708V653.068Z" fill="#7700D1"/>
<path d="M48.6445 709.508H5.16431C2.33227 709.508 0 707.168 0 704.326C0 701.484 2.33227 699.144 5.16431 699.144H48.6445C51.4766 699.144 53.8088 701.484 53.8088 704.326C53.8088 707.252 51.4766 709.508 48.6445 709.508Z" fill="white"/>
<path d="M94.54 655.01H51.0598C48.2278 655.01 45.8955 652.67 45.8955 649.828C45.8955 646.986 48.2278 644.646 51.0598 644.646H94.54C97.3721 644.646 99.7043 646.986 99.7043 649.828C99.7043 652.67 97.3721 655.01 94.54 655.01Z" fill="white"/>
<path d="M94.54 764.09H51.0598C48.2278 764.09 45.8955 761.75 45.8955 758.908C45.8955 756.066 48.2278 753.726 51.0598 753.726H94.54C97.3721 753.726 99.7043 756.066 99.7043 758.908C99.7043 761.75 97.3721 764.09 94.54 764.09Z" fill="white"/>
<path d="M724.836 827.282C724.67 827.282 724.503 827.282 724.337 827.282C692.934 823.938 671.944 786.324 671.028 784.736L675.276 777.548H708.76C711.426 777.548 713.592 779.721 713.592 782.396C713.592 785.071 711.426 787.244 708.76 787.244H684.105C691.352 797.609 706.595 815.663 725.336 817.669C728.002 817.92 729.917 820.344 729.668 823.019C729.334 825.443 727.252 827.282 724.836 827.282Z" fill="white"/>
<path d="M702.18 875.093H681.106C678.441 875.093 676.275 872.92 676.275 870.245C676.275 867.57 678.441 865.397 681.106 865.397H702.18C713.258 865.397 722.254 856.37 722.254 845.253V817.251C722.254 804.964 714.008 788.33 704.346 780.891L704.013 780.641L578.32 665.459C571.49 660.36 567.408 660.36 557.829 660.527C556.163 660.527 554.331 660.611 552.415 660.611H487.028C484.363 660.611 482.197 658.437 482.197 655.763C482.197 653.088 484.363 650.915 487.028 650.915H552.415C554.331 650.915 556.08 650.915 557.746 650.831C567.991 650.664 574.738 650.58 584.317 657.852L584.65 658.103L710.343 773.201C722.421 782.563 731.917 801.871 731.917 817.168V845.169C732 861.636 718.589 875.093 702.18 875.093Z" fill="white"/>
<path d="M577.904 875.093H484.863C482.197 875.093 480.031 872.92 480.031 870.245C480.031 867.57 482.197 865.397 484.863 865.397H577.904C580.569 865.397 582.735 867.57 582.735 870.245C582.735 872.92 580.569 875.093 577.904 875.093Z" fill="white"/>
<path d="M629.463 927C598.394 927 573.072 901.59 573.072 870.412C573.072 839.234 598.394 813.824 629.463 813.824C660.533 813.824 685.854 839.234 685.854 870.412C685.938 901.59 660.616 927 629.463 927ZM629.463 823.52C603.725 823.52 582.735 844.584 582.735 870.412C582.735 896.24 603.725 917.304 629.463 917.304C655.202 917.304 676.192 896.24 676.192 870.412C676.192 844.584 655.285 823.52 629.463 823.52Z" fill="white"/>
<path d="M629.463 898.246C614.137 898.246 601.726 885.791 601.726 870.411C601.726 855.032 614.137 842.577 629.463 842.577C644.789 842.577 657.201 855.032 657.201 870.411C657.201 885.791 644.789 898.246 629.463 898.246ZM629.463 852.273C619.468 852.273 611.388 860.381 611.388 870.411C611.388 880.442 619.468 888.55 629.463 888.55C639.459 888.55 647.538 880.442 647.538 870.411C647.538 860.381 639.459 852.273 629.463 852.273Z" fill="white"/>
<path d="M580.903 823.52H512.933C510.268 823.52 508.102 821.347 508.102 818.672C508.102 815.997 510.268 813.824 512.933 813.824H580.903C583.568 813.824 585.734 815.997 585.734 818.672C585.734 821.347 583.568 823.52 580.903 823.52Z" fill="white"/>
<path d="M645.872 755.565H512.933L508.102 750.717V678.582L512.933 673.734H569.407L572.739 675.071L649.204 747.206L645.872 755.565ZM517.764 745.869H633.711L567.491 683.43H517.764V745.869Z" fill="white"/>
<path d="M484.612 872.251C481.947 872.251 479.781 870.078 479.781 867.403V656.348C479.781 653.673 481.947 651.5 484.612 651.5C487.278 651.5 489.444 653.673 489.444 656.348V867.403C489.444 870.078 487.278 872.251 484.612 872.251Z" fill="white"/>
<path d="M521.596 875.093H330.183C327.517 875.093 325.352 872.92 325.352 870.245C325.352 867.571 327.517 865.397 330.183 865.397H521.596C524.261 865.397 526.427 867.571 526.427 870.245C526.427 872.92 524.261 875.093 521.596 875.093Z" fill="white"/>
<path d="M227.063 875.093H219.9C204.407 875.093 191.829 862.471 191.829 846.924V818.672C191.829 815.997 193.995 813.824 196.66 813.824C199.326 813.824 201.492 815.997 201.492 818.672V846.924C201.492 857.122 209.738 865.397 219.9 865.397H227.063C229.729 865.397 231.894 867.57 231.894 870.245C231.894 872.919 229.729 875.093 227.063 875.093Z" fill="white"/>
<path d="M278.623 927C247.554 927 222.232 901.59 222.232 870.412C222.232 839.234 247.554 813.824 278.623 813.824C309.692 813.824 335.014 839.234 335.014 870.412C335.014 901.59 309.692 927 278.623 927ZM278.623 823.52C252.885 823.52 231.894 844.584 231.894 870.412C231.894 896.24 252.885 917.304 278.623 917.304C304.361 917.304 325.352 896.24 325.352 870.412C325.352 844.584 304.361 823.52 278.623 823.52Z" fill="white"/>
<path d="M278.623 898.246C263.297 898.246 250.886 885.791 250.886 870.412C250.886 855.032 263.297 842.577 278.623 842.577C293.95 842.577 306.361 855.032 306.361 870.412C306.361 885.791 293.866 898.246 278.623 898.246ZM278.623 852.273C268.628 852.273 260.548 860.381 260.548 870.412C260.548 880.442 268.628 888.55 278.623 888.55C288.619 888.55 296.698 880.442 296.698 870.412C296.698 860.381 288.535 852.273 278.623 852.273Z" fill="white"/>
<rect x="680.951" y="873.049" width="5.60629" height="17.7158" transform="rotate(-90 680.951 873.049)" fill="white"/>
<rect x="517.624" y="873.049" width="5.60629" height="58.2842" transform="rotate(-90 517.624 873.049)" fill="white"/>
<rect x="330.734" y="873.049" width="5.60629" height="58.2842" transform="rotate(-90 330.734 873.049)" fill="white"/>
<path d="M541.753 719.455C540.671 719.455 539.504 719.037 538.588 718.285C536.589 716.53 536.339 713.521 538.088 711.431L567.408 676.91C569.157 674.904 572.156 674.653 574.239 676.408C576.238 678.164 576.487 681.173 574.738 683.263L545.418 717.784C544.502 718.954 543.086 719.455 541.753 719.455Z" fill="white"/>
<path d="M543.502 755.565C542.42 755.565 541.253 755.147 540.337 754.395C538.338 752.639 538.088 749.63 539.837 747.541L572.989 708.506C574.738 706.5 577.737 706.249 579.819 708.004C581.818 709.76 582.068 712.769 580.319 714.858L547.251 753.893C546.251 754.98 544.918 755.565 543.502 755.565Z" fill="white"/>
<path d="M535.34 768.688H512.933V778.384H535.34V768.688Z" fill="white"/>
<path fill-rule="evenodd" clip-rule="evenodd" d="M150.583 641.441V818.672L155.414 823.52H485.514L490.345 818.672V641.441H480.683V813.824H160.245V641.441H150.583ZM241.782 578.696H394.466V569H241.782V578.696Z" fill="white"/>
<rect x="712.659" y="779.595" width="5.60625" height="10.7803" transform="rotate(90 712.659 779.595)" fill="white"/>
<rect x="728.427" y="819.266" width="5.67076" height="6.40796" transform="rotate(90 728.427 819.266)" fill="white"/>
<rect x="556.624" y="747.93" width="5.60074" height="17.9569" transform="rotate(90 556.624 747.93)" fill="white"/>
<path d="M228.607 678.273C231.558 678.273 233.792 679.073 235.307 680.674C236.848 682.248 237.619 684.569 237.619 687.635V697.405C237.619 700.472 236.848 702.806 235.307 704.407C233.792 705.981 231.558 706.768 228.607 706.768H213.326V678.273H228.607ZM230.566 687.635C230.566 685.193 229.39 683.972 227.039 683.972H220.378V701.069H227.039C229.39 701.069 230.566 699.848 230.566 697.405V687.635Z" fill="white"/>
<path d="M260.333 686.007C260.333 684.379 259.55 683.565 257.982 683.565H251.321C249.754 683.565 248.971 684.379 248.971 686.007V699.034C248.971 700.662 249.754 701.476 251.321 701.476H257.982C259.55 701.476 260.333 700.662 260.333 699.034V686.007ZM267.386 699.034C267.386 701.883 266.759 703.959 265.505 705.262C264.278 706.538 262.292 707.175 259.55 707.175H249.754C247.011 707.175 245.013 706.538 243.759 705.262C242.532 703.959 241.918 701.883 241.918 699.034V686.007C241.918 683.158 242.532 681.095 243.759 679.819C245.013 678.517 247.011 677.865 249.754 677.865H259.55C262.292 677.865 264.278 678.517 265.505 679.819C266.759 681.095 267.386 683.158 267.386 686.007V699.034Z" fill="white"/>
<path d="M271.675 700.866C278.832 701.273 283.678 701.476 286.212 701.476C286.813 701.476 287.283 701.3 287.622 700.947C287.988 700.567 288.171 700.065 288.171 699.441V695.777H279.159C276.416 695.777 274.418 695.139 273.164 693.864C271.936 692.561 271.323 690.485 271.323 687.635V686.414C271.323 683.565 271.936 681.502 273.164 680.227C274.418 678.924 276.416 678.273 279.159 678.273H292.912V683.972H280.726C279.159 683.972 278.375 684.786 278.375 686.414V687.228C278.375 688.857 279.159 689.671 280.726 689.671H287.779C290.339 689.671 292.22 690.295 293.421 691.543C294.623 692.792 295.224 694.746 295.224 697.405V699.441C295.224 702.1 294.623 704.054 293.421 705.303C292.22 706.551 290.339 707.175 287.779 707.175C286.447 707.175 285.036 707.148 283.547 707.094L279.943 706.931C277.278 706.795 274.522 706.605 271.675 706.361V700.866Z" fill="white"/>
<path d="M311.293 706.768H304.24V683.972H296.012V678.273H319.521V683.972H311.293V706.768Z" fill="white"/>
<path d="M325.587 706.768H317.946L328.329 678.273H336.166L346.549 706.768H338.908L337.145 701.68H327.35L325.587 706.768ZM329.113 696.388H335.382L332.247 686.821L329.113 696.388Z" fill="white"/>
<path d="M358.486 698.22L365.147 678.273H372.787L362.404 706.768H354.567L344.184 678.273H351.825L358.486 698.22Z" fill="white"/>
<path d="M397.666 706.768H375.92V678.273H397.666V683.972H382.973V689.467H394.531V695.166H382.973V701.069H397.666V706.768Z" fill="white"/>
<path d="M401.967 678.273H418.423C421.166 678.273 423.151 678.924 424.379 680.227C425.633 681.502 426.26 683.565 426.26 686.414V690.078C426.26 692.33 425.894 694.081 425.163 695.329C424.457 696.578 423.321 697.405 421.754 697.813L426.651 706.768H419.011L414.505 698.22H409.02V706.768H401.967V678.273ZM419.207 686.414C419.207 684.786 418.423 683.972 416.856 683.972H409.02V692.52H416.856C418.423 692.52 419.207 691.706 419.207 690.078V686.414Z" fill="white"/>
<rect x="498.004" y="652.946" width="5.60638" height="15.3194" transform="rotate(90 498.004 652.946)" fill="white"/>
<rect x="481.839" y="816.978" width="5.60419" height="52.7193" fill="white"/>
<path fill-rule="evenodd" clip-rule="evenodd" d="M205.61 579H188.583C173.119 579 160.583 591.536 160.583 607V611.777H160.234V684.242C154.232 677.522 150.583 668.655 150.583 658.936V607C150.583 586.013 167.596 569 188.583 569H265.242C275.022 569 283.94 572.695 290.674 578.765H205.61V579Z" fill="white"/>
</g>
<g opacity="0.2">
<path d="M1315.36 368.206H1363.63C1371.93 368.206 1378.66 361.462 1378.66 353.155C1378.66 344.848 1371.93 338.104 1363.63 338.104C1361.61 338.104 1359.64 338.5 1357.82 339.271C1356.81 336.403 1355.05 333.812 1352.7 331.815C1349.54 329.105 1345.51 327.602 1341.34 327.602C1331.7 327.602 1323.86 335.454 1323.86 345.105C1323.86 346.351 1324.86 347.34 1326.09 347.34C1327.31 347.34 1328.32 346.332 1328.32 345.105C1328.32 337.926 1334.15 332.092 1341.32 332.092C1347.7 332.092 1353.1 336.68 1354.14 342.989L1357.62 344.473C1359.4 343.246 1361.45 342.594 1363.61 342.594C1369.44 342.594 1374.16 347.34 1374.16 353.155C1374.16 358.989 1369.42 363.716 1363.61 363.716H1315.32C1314.07 363.716 1313.09 364.725 1313.09 365.951C1313.09 367.177 1314.11 368.206 1315.36 368.206Z" fill="white"/>
<path d="M1301.57 359.029H1345.23C1346.48 359.029 1347.47 358.02 1347.47 356.794C1347.47 355.548 1346.46 354.559 1345.23 354.559H1301.57C1300.32 354.559 1299.34 355.568 1299.34 356.794C1299.34 358.04 1300.34 359.029 1301.57 359.029Z" fill="white"/>
</g>
<g opacity="0.2">
<path d="M60.808 372.906C60.2596 372.906 59.808 372.249 59.808 371.452V360.36C59.808 359.562 60.2596 358.906 60.808 358.906C61.3564 358.906 61.808 359.562 61.808 360.36V371.452C61.808 372.249 61.3564 372.906 60.808 372.906Z" fill="white"/>
<path d="M66.3549 366.621H55.2628C54.4655 366.621 53.8088 366.128 53.8088 365.542C53.8088 364.956 54.4655 364.463 55.2628 364.463H66.3549C67.1522 364.463 67.8088 364.956 67.8088 365.542C67.8088 366.128 67.1522 366.621 66.3549 366.621Z" fill="white"/>
</g>
<g opacity="0.2">
<path d="M959.999 14.9037C959.451 14.9037 958.999 14.2471 958.999 13.4497V2.35762C958.999 1.5603 959.451 0.903687 959.999 0.903687C960.547 0.903687 960.999 1.5603 960.999 2.35762V13.4497C960.999 14.2471 960.547 14.9037 959.999 14.9037Z" fill="white"/>
<path d="M965.546 8.61876H954.454C953.656 8.61876 953 8.12629 953 7.54003C953 6.95377 953.656 6.4613 954.454 6.4613H965.546C966.343 6.4613 967 6.95377 967 7.54003C967 8.12629 966.343 8.61876 965.546 8.61876Z" fill="white"/>
</g>
<defs>
<clipPath id="clip0_5451_8">
<rect width="732" height="358" fill="white" transform="translate(0 569)"/>
</clipPath>
</defs>
</svg>
