<svg width="1467" height="676" viewBox="0 0 1467 676" fill="none" xmlns="http://www.w3.org/2000/svg">
<g opacity="0.05" clip-path="url(#clip0_5441_13)">
<path d="M57.4046 426.55C57.4046 431.394 61.3376 435.326 66.1831 435.326H101.299C106.145 435.326 110.078 431.394 110.078 426.55V373.887C110.078 369.043 106.145 365.111 101.299 365.111H66.1841C61.3386 365.111 57.4056 369.043 57.4056 373.887V426.55H57.4046ZM74.9626 382.665H92.5206V417.773H74.9626V382.665Z" fill="white" stroke="#7700D1" stroke-width="11"/>
<path d="M285.654 637.2C285.654 642.044 289.587 645.976 294.432 645.976H329.547C334.393 645.976 338.326 642.044 338.326 637.2V584.537C338.326 579.693 334.393 575.761 329.547 575.761H294.432C289.587 575.761 285.654 579.693 285.654 584.537V637.2ZM303.212 593.315H320.77V628.423H303.212V593.315Z" fill="white" stroke="#7700D1" stroke-width="11"/>
<path d="M294.432 435.328H329.547C334.393 435.328 338.326 431.395 338.326 426.551V373.889C338.326 369.044 334.393 365.112 329.547 365.112H294.432C289.587 365.112 285.654 369.044 285.654 373.889V426.551C285.654 431.395 289.587 435.328 294.432 435.328ZM303.212 382.665H320.77V417.773H303.212V382.665Z" fill="white" stroke="#7700D1" stroke-width="11"/>
<path d="M145.193 426.55C145.193 431.394 149.126 435.326 153.972 435.326H189.087C193.932 435.326 197.865 431.394 197.865 426.55V373.887C197.865 369.043 193.932 365.111 189.087 365.111H153.972C149.126 365.111 145.193 369.043 145.193 373.887V426.55ZM162.75 382.665H180.308V417.773H162.75V382.665Z" fill="white" stroke="#7700D1" stroke-width="11"/>
<path fill-rule="evenodd" clip-rule="evenodd" d="M276.876 312.449H382.222C387.067 312.449 391 316.381 391 321.225V707.416C391 721.934 379.184 733.748 364.664 733.748H294.435C279.915 733.748 268.098 721.934 268.098 707.416C268.098 692.899 279.915 681.085 294.435 681.085C295.953 681.085 297.463 681.217 298.947 681.48C305.004 670.57 316.531 663.531 329.55 663.531C342.569 663.531 354.095 670.57 360.152 681.48C361.636 681.217 363.146 681.085 364.665 681.085C367.763 681.085 370.687 681.717 373.443 682.7V352.956H387.105V316.181H352.827V330.002H276.876C272.03 330.002 268.097 326.07 268.097 321.225C268.097 316.381 272.03 312.449 276.876 312.449ZM294.433 716.193H364.664C369.501 716.193 373.442 712.253 373.443 707.416C373.443 700.895 365.621 696.384 359.907 700.07C357.5 701.615 354.49 701.896 351.847 700.825C349.196 699.755 347.238 697.455 346.597 694.673C344.745 686.677 337.73 681.085 329.549 681.085C321.367 681.085 314.353 686.677 312.5 694.673C311.859 697.455 309.901 699.755 307.25 700.825C304.599 701.896 301.596 701.615 299.191 700.07C297.715 699.122 296.118 698.64 294.433 698.64C289.595 698.64 285.654 702.58 285.654 707.416C285.654 712.253 289.595 716.193 294.433 716.193Z" fill="white"/>
<path d="M298.947 681.48L297.986 686.896L301.85 687.581L303.755 684.15L298.947 681.48ZM360.152 681.48L355.344 684.15L357.249 687.581L361.114 686.896L360.152 681.48ZM373.443 682.7L371.595 687.88L378.943 690.502V682.7H373.443ZM373.443 352.956V347.456H367.943V352.956H373.443ZM387.105 352.956V358.456H392.605V352.956H387.105ZM387.105 316.181H392.605V310.681H387.105V316.181ZM352.827 316.181V310.681H347.327V316.181H352.827ZM352.827 330.002V335.502H358.327V330.002H352.827ZM373.443 707.416L378.943 707.418V707.416H373.443ZM359.907 700.07L362.878 704.699L362.888 704.692L359.907 700.07ZM351.847 700.825L353.912 695.728L353.907 695.726L351.847 700.825ZM346.597 694.673L351.957 693.438L351.955 693.431L346.597 694.673ZM312.5 694.673L307.142 693.431L307.14 693.438L312.5 694.673ZM299.191 700.07L296.217 704.697L296.218 704.698L299.191 700.07ZM382.222 306.949H276.876V317.949H382.222V306.949ZM396.5 321.225C396.5 313.342 390.104 306.949 382.222 306.949V317.949C384.031 317.949 385.5 319.419 385.5 321.225H396.5ZM396.5 707.416V321.225H385.5V707.416H396.5ZM364.664 739.248C382.22 739.248 396.5 724.972 396.5 707.416H385.5C385.5 718.895 376.147 728.248 364.664 728.248V739.248ZM294.435 739.248H364.664V728.248H294.435V739.248ZM262.598 707.416C262.598 724.972 276.878 739.248 294.435 739.248V728.248C282.951 728.248 273.598 718.895 273.598 707.416H262.598ZM294.435 675.585C276.878 675.585 262.598 689.861 262.598 707.416H273.598C273.598 695.938 282.951 686.585 294.435 686.585V675.585ZM299.908 676.065C298.103 675.744 296.271 675.585 294.435 675.585V686.585C295.635 686.585 296.824 686.689 297.986 686.896L299.908 676.065ZM329.55 658.031C314.504 658.031 301.152 666.179 294.138 678.81L303.755 684.15C308.857 674.962 318.557 669.031 329.55 669.031V658.031ZM364.961 678.81C357.948 666.179 344.595 658.031 329.55 658.031V669.031C340.542 669.031 350.242 674.962 355.344 684.15L364.961 678.81ZM364.665 675.585C362.828 675.585 360.996 675.744 359.191 676.065L361.114 686.896C362.275 686.689 363.464 686.585 364.665 686.585V675.585ZM375.291 677.52C372.077 676.373 368.522 675.585 364.665 675.585V686.585C367.004 686.585 369.297 687.06 371.595 687.88L375.291 677.52ZM367.943 352.956V682.7H378.943V352.956H367.943ZM387.105 347.456H373.443V358.456H387.105V347.456ZM381.605 316.181V352.956H392.605V316.181H381.605ZM352.827 321.681H387.105V310.681H352.827V321.681ZM358.327 330.002V316.181H347.327V330.002H358.327ZM276.876 335.502H352.827V324.502H276.876V335.502ZM262.597 321.225C262.597 329.109 268.994 335.502 276.876 335.502V324.502C275.067 324.502 273.597 323.031 273.597 321.225H262.597ZM276.876 306.949C268.994 306.949 262.597 313.342 262.597 321.225H273.597C273.597 319.42 275.067 317.949 276.876 317.949V306.949ZM364.664 710.693H294.433V721.693H364.664V710.693ZM367.943 707.415C367.943 709.214 366.464 710.693 364.664 710.693V721.693C372.538 721.693 378.941 715.291 378.943 707.418L367.943 707.415ZM362.888 704.692C363.781 704.116 364.966 704.068 366.148 704.724C367.366 705.4 367.943 706.469 367.943 707.416H378.943C378.943 696.661 366.401 689.336 356.925 695.449L362.888 704.692ZM349.782 705.923C354.083 707.666 358.971 707.207 362.878 704.699L356.935 695.442C356.029 696.024 354.897 696.127 353.912 695.728L349.782 705.923ZM341.238 695.907C342.281 700.434 345.467 704.18 349.787 705.925L353.907 695.726C352.926 695.329 352.196 694.475 351.957 693.438L341.238 695.907ZM329.549 686.585C335.158 686.585 339.961 690.399 341.239 695.914L351.955 693.431C349.528 682.954 340.303 675.585 329.549 675.585V686.585ZM317.858 695.914C319.136 690.399 323.939 686.585 329.549 686.585V675.585C318.795 675.585 309.57 682.954 307.142 693.431L317.858 695.914ZM309.31 705.925C313.631 704.18 316.817 700.434 317.86 695.907L307.14 693.438C306.901 694.475 306.172 695.329 305.19 695.726L309.31 705.925ZM296.218 704.698C300.126 707.208 305.006 707.664 309.31 705.925L305.19 695.726C304.192 696.129 303.066 696.022 302.163 695.443L296.218 704.698ZM294.433 704.14C295.012 704.14 295.585 704.291 296.217 704.697L302.165 695.444C299.846 693.953 297.223 693.14 294.433 693.14V704.14ZM291.154 707.416C291.154 705.619 292.632 704.14 294.433 704.14V693.14C286.559 693.14 280.154 699.542 280.154 707.416H291.154ZM294.433 710.693C292.632 710.693 291.154 709.214 291.154 707.416H280.154C280.154 715.291 286.559 721.693 294.433 721.693V710.693Z" fill="#7700D1"/>
<path d="M153.972 330.003H189.087C193.932 330.003 197.865 326.071 197.865 321.226V268.564C197.865 263.72 193.932 259.787 189.087 259.787H153.972C149.126 259.787 145.193 263.72 145.193 268.564V321.226C145.193 326.071 149.126 330.003 153.972 330.003ZM162.75 277.341H180.308V312.449H162.75V277.341Z" fill="white" stroke="#7700D1" stroke-width="11"/>
<path d="M145.193 531.875C145.193 536.719 149.126 540.651 153.972 540.651H189.087C193.932 540.651 197.865 536.719 197.865 531.875V479.212C197.865 474.368 193.932 470.436 189.087 470.436H153.972C149.126 470.436 145.193 474.368 145.193 479.212V531.875ZM162.75 487.99H180.308V523.098H162.75V487.99Z" fill="white" stroke="#7700D1" stroke-width="11"/>
<path d="M66.1843 330.003H101.299C106.145 330.003 110.078 326.071 110.078 321.226V268.564C110.078 263.72 106.145 259.787 101.299 259.787H66.1843C61.3388 259.787 57.4058 263.72 57.4058 268.564V321.226C57.4048 326.071 61.3378 330.003 66.1843 330.003ZM74.9628 277.341H92.5208V312.449H74.9628V277.341Z" fill="white" stroke="#7700D1" stroke-width="11"/>
<path d="M121.402 630.968C119.822 632.635 118.856 634.918 118.856 637.2C118.856 639.483 119.822 641.764 121.402 643.432C123.07 645.012 125.353 645.978 127.635 645.978C129.918 645.978 132.2 645.012 133.869 643.432C135.449 641.765 136.415 639.483 136.415 637.2C136.415 634.918 135.449 632.637 133.869 630.968C130.532 627.72 124.738 627.72 121.402 630.968Z" fill="white" stroke="#7700D1" stroke-width="11"/>
<path d="M57.4046 531.875C57.4046 536.719 61.3376 540.651 66.1831 540.651H101.299C106.145 540.651 110.078 536.719 110.078 531.875V479.212C110.078 474.368 106.145 470.436 101.299 470.436H66.1841C61.3386 470.436 57.4056 474.368 57.4056 479.212V531.875H57.4046ZM74.9626 487.99H92.5206V523.098H74.9626V487.99Z" fill="white" stroke="#7700D1" stroke-width="11"/>
<path d="M39.8479 584.537C39.8479 589.382 43.7809 593.314 48.6264 593.314H74.9628V672.308C74.9628 677.152 78.8958 681.084 83.7413 681.084C88.5868 681.084 92.5198 677.152 92.5198 672.308V593.314H162.751V672.308C162.751 677.152 166.684 681.084 171.529 681.084C176.375 681.084 180.308 677.152 180.308 672.308V593.314H206.644C211.49 593.314 215.423 589.382 215.423 584.537C215.423 579.693 211.49 575.761 206.644 575.761H48.6264C43.7809 575.761 39.8479 579.693 39.8479 584.537Z" fill="white" stroke="#7700D1" stroke-width="11"/>
<path d="M285.654 531.875C285.654 536.719 289.587 540.651 294.432 540.651H329.547C334.393 540.651 338.326 536.719 338.326 531.875V479.212C338.326 474.368 334.393 470.436 329.547 470.436H294.432C289.587 470.436 285.654 474.368 285.654 479.212V531.875ZM303.212 487.99H320.77V523.098H303.212V487.99Z" fill="white" stroke="#7700D1" stroke-width="11"/>
<path fill-rule="evenodd" clip-rule="evenodd" d="M205.98 207.124H13.5113C11.6184 207.124 9.86485 207.724 8.43056 208.744H57.4058V224.677H205.98V207.124ZM22.2897 253.857H7.42185V209.581C5.76439 211.178 4.73279 213.419 4.73279 215.901V672.307C4.73279 677.152 8.66577 681.084 13.5113 681.084C18.3568 681.084 22.2897 677.152 22.2897 672.307V253.857ZM232.981 672.307V254.685H250.538V672.307C250.538 677.152 246.605 681.084 241.76 681.084C236.914 681.084 232.981 677.152 232.981 672.307Z" fill="white"/>
<path d="M205.98 207.124H210.98V202.124H205.98V207.124ZM8.43056 208.744L5.53269 204.669L-7.22676 213.744H8.43056V208.744ZM57.4058 208.744H62.4058V203.744H57.4058V208.744ZM57.4058 224.677H52.4058V229.677H57.4058V224.677ZM205.98 224.677V229.677H210.98V224.677H205.98ZM22.2897 253.857H27.2897V248.857H22.2897V253.857ZM7.42185 253.857H2.42185V258.857H7.42185V253.857ZM7.42185 209.581H12.4218V197.821L3.95277 205.98L7.42185 209.581ZM232.981 254.685V249.685H227.981V254.685H232.981ZM250.538 254.685H255.538V249.685H250.538V254.685ZM13.5113 212.124H205.98V202.124H13.5113V212.124ZM11.3284 212.818C11.9451 212.38 12.6918 212.124 13.5113 212.124V202.124C10.5451 202.124 7.78464 203.068 5.53269 204.669L11.3284 212.818ZM8.43056 213.744H57.4058V203.744H8.43056V213.744ZM52.4058 208.744V224.677H62.4058V208.744H52.4058ZM205.98 219.677H57.4058V229.677H205.98V219.677ZM200.98 207.124V224.677H210.98V207.124H200.98ZM22.2897 248.857H7.42185V258.857H22.2897V248.857ZM12.4218 253.857V209.581H2.42185V253.857H12.4218ZM9.73279 215.901C9.73279 214.835 10.1699 213.876 10.8909 213.181L3.95277 205.98C1.3589 208.479 -0.267212 212.004 -0.267212 215.901H9.73279ZM9.73279 672.307V215.901H-0.267212V672.307H9.73279ZM13.5113 676.084C11.4263 676.084 9.73279 674.39 9.73279 672.307H-0.267212C-0.267212 679.914 5.90526 686.084 13.5113 686.084V676.084ZM17.2897 672.307C17.2897 674.39 15.5962 676.084 13.5113 676.084V686.084C21.1173 686.084 27.2897 679.914 27.2897 672.307H17.2897ZM17.2897 253.857V672.307H27.2897V253.857H17.2897ZM227.981 254.685V672.307H237.981V254.685H227.981ZM250.538 249.685H232.981V259.685H250.538V249.685ZM255.538 672.307V254.685H245.538V672.307H255.538ZM241.76 686.084C249.366 686.084 255.538 679.914 255.538 672.307H245.538C245.538 674.39 243.845 676.084 241.76 676.084V686.084ZM227.981 672.307C227.981 679.914 234.154 686.084 241.76 686.084V676.084C239.675 676.084 237.981 674.39 237.981 672.307H227.981Z" fill="#7700D1"/>
<path fill-rule="evenodd" clip-rule="evenodd" d="M325.972 325.348V318.348H347.254C368.241 318.348 385.254 335.361 385.254 356.348V365.111H378.254V356.348C378.254 339.227 364.375 325.348 347.254 325.348H325.972Z" fill="white"/>
<path fill-rule="evenodd" clip-rule="evenodd" d="M185.451 220.172V213.172H206.844C227.83 213.172 244.844 230.185 244.844 251.172V259.788H237.844V251.172C237.844 234.051 223.964 220.172 206.844 220.172H185.451Z" fill="white"/>
<path fill-rule="evenodd" clip-rule="evenodd" d="M69.4977 219.459V212.459H48.216C27.2292 212.459 10.216 229.472 10.216 250.459V259.788H17.216V250.459C17.216 233.338 31.0952 219.459 48.216 219.459H69.4977Z" fill="white"/>
</g>
<g opacity="0.05" clip-path="url(#clip1_5441_13)">
<path d="M1272.96 426.55C1272.96 431.394 1276.9 435.326 1281.74 435.326H1316.86C1321.7 435.326 1325.64 431.394 1325.64 426.55V373.887C1325.64 369.043 1321.7 365.111 1316.86 365.111H1281.74C1276.9 365.111 1272.96 369.043 1272.96 373.887V426.55H1272.96ZM1290.52 382.665H1308.08V417.773H1290.52V382.665Z" fill="white" stroke="#7700D1" stroke-width="11"/>
<path fill-rule="evenodd" clip-rule="evenodd" d="M1088.61 312.449H1193.95C1198.8 312.449 1202.73 316.382 1202.73 321.226C1202.73 326.071 1198.8 330.003 1193.95 330.003H1124.02V315.627H1083.32V356.754H1097.39V496.767C1097.39 501.612 1093.45 505.544 1088.61 505.544C1083.76 505.544 1079.83 501.612 1079.83 496.767V321.225C1079.83 316.381 1083.76 312.449 1088.61 312.449Z" fill="white"/>
<path d="M1124.02 330.003H1119.02V335.003H1124.02V330.003ZM1124.02 315.627H1129.02V310.627H1124.02V315.627ZM1083.32 315.627V310.627H1078.32V315.627H1083.32ZM1083.32 356.754H1078.32V361.754H1083.32V356.754ZM1097.39 356.754H1102.39V351.754H1097.39V356.754ZM1193.95 307.449H1088.61V317.449H1193.95V307.449ZM1207.73 321.226C1207.73 313.621 1201.56 307.449 1193.95 307.449V317.449C1196.04 317.449 1197.73 319.143 1197.73 321.226H1207.73ZM1193.95 335.003C1201.56 335.003 1207.73 328.833 1207.73 321.226H1197.73C1197.73 323.309 1196.04 325.003 1193.95 325.003V335.003ZM1124.02 335.003H1193.95V325.003H1124.02V335.003ZM1119.02 315.627V330.003H1129.02V315.627H1119.02ZM1083.32 320.627H1124.02V310.627H1083.32V320.627ZM1088.32 356.754V315.627H1078.32V356.754H1088.32ZM1097.39 351.754H1083.32V361.754H1097.39V351.754ZM1102.39 496.767V356.754H1092.39V496.767H1102.39ZM1088.61 510.544C1096.21 510.544 1102.39 504.374 1102.39 496.767H1092.39C1092.39 498.849 1090.69 500.544 1088.61 500.544V510.544ZM1074.83 496.767C1074.83 504.374 1081 510.544 1088.61 510.544V500.544C1086.52 500.544 1084.83 498.849 1084.83 496.767H1074.83ZM1074.83 321.225V496.767H1084.83V321.225H1074.83ZM1088.61 307.449C1081 307.449 1074.83 313.619 1074.83 321.225H1084.83C1084.83 319.143 1086.52 317.449 1088.61 317.449V307.449Z" fill="#7700D1"/>
<path fill-rule="evenodd" clip-rule="evenodd" d="M1144.88 323.148V318.348H1123.6C1102.61 318.348 1085.6 335.361 1085.6 356.348V365.111H1090.4V356.348C1090.4 338.012 1105.26 323.148 1123.6 323.148H1144.88Z" fill="white"/>
<path d="M1123.72 523.098C1080.33 523.098 1079.83 636.059 1079.83 637.2C1079.83 658.396 1094.94 676.117 1114.94 680.199V724.971C1114.94 729.815 1118.88 733.748 1123.72 733.748C1128.57 733.748 1132.5 729.815 1132.5 724.971V680.199C1152.51 676.117 1167.62 658.396 1167.62 637.2C1167.62 636.059 1167.12 523.098 1123.72 523.098ZM1123.72 663.531C1109.2 663.531 1097.39 651.717 1097.39 637.2C1097.39 593.472 1109.13 540.652 1123.72 540.652C1138.31 540.652 1150.06 593.472 1150.06 637.2C1150.06 651.717 1138.24 663.531 1123.72 663.531Z" fill="white" stroke="#7700D1" stroke-width="11"/>
<path d="M1176.4 470.436H1141.28C1136.44 470.436 1132.5 474.368 1132.5 479.212V496.767C1132.5 501.611 1136.44 505.543 1141.28 505.543C1146.13 505.543 1150.06 501.611 1150.06 496.767V487.99H1167.62V531.876C1167.62 536.72 1171.55 540.652 1176.4 540.652C1181.24 540.652 1185.17 536.72 1185.17 531.876V479.213C1185.18 474.368 1181.24 470.436 1176.4 470.436Z" fill="white" stroke="#7700D1" stroke-width="11"/>
<path d="M1176.4 365.111H1141.28C1136.44 365.111 1132.5 369.043 1132.5 373.887V426.55C1132.5 431.394 1136.44 435.326 1141.28 435.326H1176.4C1181.24 435.326 1185.17 431.394 1185.17 426.55V373.887C1185.18 369.043 1181.24 365.111 1176.4 365.111ZM1167.62 417.773H1150.06V382.665H1167.62V417.773H1167.62Z" fill="white" stroke="#7700D1" stroke-width="11"/>
<path d="M1360.75 426.55C1360.75 431.394 1364.69 435.326 1369.53 435.326H1404.65C1409.49 435.326 1413.42 431.394 1413.42 426.55V373.887C1413.42 369.043 1409.49 365.111 1404.65 365.111H1369.53C1364.69 365.111 1360.75 369.043 1360.75 373.887V426.55ZM1378.31 382.665H1395.87V417.773H1378.31V382.665Z" fill="white" stroke="#7700D1" stroke-width="11"/>
<path d="M1369.53 330.003H1404.65C1409.49 330.003 1413.42 326.071 1413.42 321.226V268.564C1413.42 263.72 1409.49 259.787 1404.65 259.787H1369.53C1364.69 259.787 1360.75 263.72 1360.75 268.564V321.226C1360.75 326.071 1364.69 330.003 1369.53 330.003ZM1378.31 277.341H1395.87V312.449H1378.31V277.341Z" fill="white" stroke="#7700D1" stroke-width="11"/>
<path d="M1360.75 531.875C1360.75 536.719 1364.69 540.651 1369.53 540.651H1404.65C1409.49 540.651 1413.42 536.719 1413.42 531.875V479.212C1413.42 474.368 1409.49 470.436 1404.65 470.436H1369.53C1364.69 470.436 1360.75 474.368 1360.75 479.212V531.875ZM1378.31 487.99H1395.87V523.098H1378.31V487.99Z" fill="white" stroke="#7700D1" stroke-width="11"/>
<path d="M1281.74 330.003H1316.86C1321.7 330.003 1325.64 326.071 1325.64 321.226V268.564C1325.64 263.72 1321.7 259.787 1316.86 259.787H1281.74C1276.9 259.787 1272.96 263.72 1272.96 268.564V321.226C1272.96 326.071 1276.9 330.003 1281.74 330.003ZM1290.52 277.341H1308.08V312.449H1290.52V277.341Z" fill="white" stroke="#7700D1" stroke-width="11"/>
<path d="M1336.96 630.968C1335.38 632.635 1334.41 634.918 1334.41 637.2C1334.41 639.483 1335.38 641.764 1336.96 643.432C1338.63 645.012 1340.91 645.978 1343.19 645.978C1345.48 645.978 1347.76 645.012 1349.43 643.432C1351.01 641.765 1351.97 639.483 1351.97 637.2C1351.97 634.918 1351.01 632.637 1349.43 630.968C1346.09 627.72 1340.3 627.72 1336.96 630.968Z" fill="white" stroke="#7700D1" stroke-width="11"/>
<path d="M1272.96 531.875C1272.96 536.719 1276.9 540.651 1281.74 540.651H1316.86C1321.7 540.651 1325.64 536.719 1325.64 531.875V479.212C1325.64 474.368 1321.7 470.436 1316.86 470.436H1281.74C1276.9 470.436 1272.96 474.368 1272.96 479.212V531.875H1272.96ZM1290.52 487.99H1308.08V523.098H1290.52V487.99Z" fill="white" stroke="#7700D1" stroke-width="11"/>
<path d="M1255.41 584.537C1255.41 589.382 1259.34 593.314 1264.18 593.314H1290.52V672.308C1290.52 677.152 1294.45 681.084 1299.3 681.084C1304.15 681.084 1308.08 677.152 1308.08 672.308V593.314H1378.31V672.308C1378.31 677.152 1382.24 681.084 1387.09 681.084C1391.93 681.084 1395.87 677.152 1395.87 672.308V593.314H1422.2C1427.05 593.314 1430.98 589.382 1430.98 584.537C1430.98 579.693 1427.05 575.761 1422.2 575.761H1264.18C1259.34 575.761 1255.41 579.693 1255.41 584.537Z" fill="white" stroke="#7700D1" stroke-width="11"/>
<path fill-rule="evenodd" clip-rule="evenodd" d="M1421.54 207.124H1229.07C1227.18 207.124 1225.42 207.724 1223.99 208.744H1272.96V224.677H1421.54V207.124ZM1237.85 253.857H1222.98V209.581C1221.32 211.178 1220.29 213.419 1220.29 215.901V672.307C1220.29 677.152 1224.22 681.084 1229.07 681.084C1233.92 681.084 1237.85 677.152 1237.85 672.307V253.857ZM1448.54 672.307V254.685H1466.1V672.307C1466.1 677.152 1462.16 681.084 1457.32 681.084C1452.47 681.084 1448.54 677.152 1448.54 672.307Z" fill="white"/>
<path d="M1421.54 207.124H1426.54V202.124H1421.54V207.124ZM1223.99 208.744L1221.09 204.669L1208.33 213.744H1223.99V208.744ZM1272.96 208.744H1277.96V203.744H1272.96V208.744ZM1272.96 224.677H1267.96V229.677H1272.96V224.677ZM1421.54 224.677V229.677H1426.54V224.677H1421.54ZM1237.85 253.857H1242.85V248.857H1237.85V253.857ZM1222.98 253.857H1217.98V258.857H1222.98V253.857ZM1222.98 209.581H1227.98V197.821L1219.51 205.98L1222.98 209.581ZM1448.54 254.685V249.685H1443.54V254.685H1448.54ZM1466.1 254.685H1471.1V249.685H1466.1V254.685ZM1229.07 212.124H1421.54V202.124H1229.07V212.124ZM1226.89 212.818C1227.5 212.38 1228.25 212.124 1229.07 212.124V202.124C1226.1 202.124 1223.34 203.068 1221.09 204.669L1226.89 212.818ZM1223.99 213.744H1272.96V203.744H1223.99V213.744ZM1267.96 208.744V224.677H1277.96V208.744H1267.96ZM1421.54 219.677H1272.96V229.677H1421.54V219.677ZM1416.54 207.124V224.677H1426.54V207.124H1416.54ZM1237.85 248.857H1222.98V258.857H1237.85V248.857ZM1227.98 253.857V209.581H1217.98V253.857H1227.98ZM1225.29 215.901C1225.29 214.835 1225.73 213.876 1226.45 213.181L1219.51 205.98C1216.92 208.479 1215.29 212.004 1215.29 215.901H1225.29ZM1225.29 672.307V215.901H1215.29V672.307H1225.29ZM1229.07 676.084C1226.98 676.084 1225.29 674.39 1225.29 672.307H1215.29C1215.29 679.914 1221.46 686.084 1229.07 686.084V676.084ZM1232.85 672.307C1232.85 674.39 1231.15 676.084 1229.07 676.084V686.084C1236.68 686.084 1242.85 679.914 1242.85 672.307H1232.85ZM1232.85 253.857V672.307H1242.85V253.857H1232.85ZM1443.54 254.685V672.307H1453.54V254.685H1443.54ZM1466.1 249.685H1448.54V259.685H1466.1V249.685ZM1471.1 672.307V254.685H1461.1V672.307H1471.1ZM1457.32 686.084C1464.92 686.084 1471.1 679.914 1471.1 672.307H1461.1C1461.1 674.39 1459.4 676.084 1457.32 676.084V686.084ZM1443.54 672.307C1443.54 679.914 1449.71 686.084 1457.32 686.084V676.084C1455.23 676.084 1453.54 674.39 1453.54 672.307H1443.54Z" fill="#7700D1"/>
<path fill-rule="evenodd" clip-rule="evenodd" d="M1401.01 220.172V213.172H1422.4C1443.39 213.172 1460.4 230.185 1460.4 251.172V259.788H1453.4V251.172C1453.4 234.051 1439.52 220.172 1422.4 220.172H1401.01Z" fill="white"/>
<path fill-rule="evenodd" clip-rule="evenodd" d="M1285.06 219.459V212.459H1263.77C1242.79 212.459 1225.77 229.472 1225.77 250.459V259.788H1232.77V250.459C1232.77 233.338 1246.65 219.459 1263.77 219.459H1285.06Z" fill="white"/>
</g>
<path opacity="0.05" d="M1211.17 57.9825L1211.12 58.4259H1210.68H1188.85C1186.83 58.4259 1185.24 60.025 1185.24 62.0469C1185.24 64.0352 1186.84 65.6679 1188.85 65.6679H1210.68H1211.12L1211.17 66.1116C1211.93 72.7616 1214.55 78.8014 1218.5 83.8008L1218.78 84.1497L1218.46 84.4643L1203.02 99.9273C1201.61 101.337 1201.61 103.646 1203.02 105.056C1203.72 105.76 1204.65 106.113 1205.58 106.113C1206.51 106.113 1207.43 105.76 1208.14 105.056L1223.58 89.5926L1223.9 89.2774L1224.25 89.5541C1229.24 93.5101 1235.31 96.1342 1241.92 96.889L1242.36 96.9396V97.3858V119.231C1242.36 121.216 1244 122.852 1245.98 122.852C1247.97 122.852 1249.6 121.25 1249.6 119.231V97.3858V96.9394L1250.04 96.889C1256.68 96.1341 1262.72 93.5104 1267.71 89.5541L1268.06 89.2774L1268.38 89.5926L1283.82 105.056C1284.53 105.76 1285.45 106.113 1286.38 106.113C1287.31 106.113 1288.24 105.76 1288.95 105.056C1290.35 103.646 1290.35 101.337 1288.95 99.9273L1273.5 84.4643L1273.18 84.1497L1273.46 83.8008C1277.41 78.8018 1280.03 72.7255 1280.79 66.1113L1280.84 65.6679H1281.28H1303.11C1305.09 65.6679 1306.72 64.0659 1306.72 62.0469C1306.72 60.0586 1305.12 58.4259 1303.11 58.4259H1281.28H1280.84L1280.79 57.9822C1280.03 51.3322 1277.41 45.2924 1273.46 40.293L1273.18 39.9441L1273.5 39.6295L1288.95 24.1665C1290.35 22.7571 1290.35 20.4476 1288.95 19.0382C1287.54 17.629 1285.23 17.629 1283.82 19.0382L1268.38 34.5012L1268.06 34.8164L1267.71 34.5397C1262.72 30.5837 1256.65 27.9597 1250.04 27.2048L1249.6 27.1542V26.708V4.86286C1249.6 2.87742 1247.96 1.24182 1245.98 1.24182C1244 1.24182 1242.36 2.84383 1242.36 4.86286V26.708V27.1545L1241.92 27.2049C1235.28 27.9597 1229.24 30.5834 1224.25 34.5397L1223.9 34.8164L1223.58 34.5012L1208.14 19.0382C1206.73 17.629 1204.42 17.629 1203.02 19.0382C1201.61 20.4476 1201.61 22.7571 1203.02 24.1665L1218.46 39.6295L1218.78 39.9441L1218.5 40.293C1214.55 45.292 1211.93 51.3683 1211.17 57.9825ZM1273.84 62.0469C1273.84 77.4214 1261.34 89.899 1246.02 89.899C1230.69 89.899 1218.19 77.3845 1218.19 62.0469C1218.19 46.6729 1230.66 34.1948 1246.02 34.1948C1261.38 34.1948 1273.84 46.7098 1273.84 62.0469Z" fill="white" stroke="#FFE03F"/>
<path d="M645.104 329.837H646.104V328.837V318.816V317.816H645.104H632.473H631.473V318.816V328.837V329.837H632.473H645.104ZM645.967 308.681C651.08 308.681 655.24 312.841 655.24 317.953V329.701C655.24 334.813 651.08 338.973 645.967 338.973H631.61C626.498 338.973 622.337 334.813 622.337 329.701V317.953C622.337 312.841 626.498 308.681 631.61 308.681H645.967Z" fill="white" stroke="#7700D1" stroke-width="2"/>
<path d="M597.038 329.837H598.038V328.837V318.816V317.816H597.038H584.408H583.408V318.816V328.837V329.837H584.408H597.038ZM597.901 308.681C603.013 308.681 607.174 312.841 607.174 317.953V329.701C607.174 334.813 603.013 338.973 597.901 338.973H583.545C578.432 338.973 574.272 334.813 574.272 329.701V317.953C574.272 312.841 578.432 308.681 583.545 308.681H597.901Z" fill="white" stroke="#7700D1" stroke-width="2"/>
<path d="M645.104 372.122H646.104V371.122V361.101V360.101H645.104H632.473H631.473V361.101V371.122V372.122H632.473H645.104ZM645.967 350.965C651.08 350.965 655.24 355.125 655.24 360.237V371.985C655.24 377.097 651.08 381.257 645.967 381.257H631.61C626.498 381.257 622.337 377.097 622.337 371.985V360.237C622.337 355.125 626.498 350.965 631.61 350.965H645.967Z" fill="white" stroke="#7700D1" stroke-width="2"/>
<path d="M597.038 372.122H598.038V371.122V361.101V360.101H597.038H584.408H583.408V361.101V371.122V372.122H584.408H597.038ZM597.901 350.965C603.013 350.965 607.174 355.125 607.174 360.237V371.985C607.174 377.097 603.014 381.257 597.901 381.257H583.545C578.432 381.257 574.272 377.097 574.272 371.985V360.237C574.272 355.125 578.432 350.965 583.545 350.965H597.901Z" fill="white" stroke="#7700D1" stroke-width="2"/>
<path d="M645.104 414.406H646.104V413.406V403.385V402.385H645.104H632.473H631.473V403.385V413.406V414.406H632.473H645.104ZM631.611 393.25H645.968C651.079 393.25 655.24 397.41 655.241 402.522C655.241 402.522 655.241 402.522 655.241 402.522V414.27C655.241 419.382 651.08 423.543 645.968 423.543H631.611C626.498 423.543 622.338 419.382 622.338 414.27V402.522C622.338 397.41 626.498 393.25 631.611 393.25Z" fill="white" stroke="#7700D1" stroke-width="2"/>
<path d="M597.038 414.406H598.038V413.406V403.385V402.385H597.038H584.408H583.408V403.385V413.406V414.406H584.408H597.038ZM583.545 393.25H597.901C603.013 393.25 607.174 397.41 607.174 402.522V414.27C607.174 419.382 603.013 423.543 597.901 423.543H583.545C578.432 423.543 574.272 419.382 574.272 414.27V402.522C574.272 397.41 578.432 393.25 583.545 393.25Z" fill="white" stroke="#7700D1" stroke-width="2"/>
<path d="M680.541 402.386H679.541V403.386V413.407V414.407H680.541H693.171H694.171V413.407V403.386V402.386H693.171H680.541ZM694.034 423.542H679.677C674.565 423.542 670.405 419.382 670.405 414.269V402.522C670.405 397.409 674.565 393.249 679.677 393.249H694.034C699.146 393.249 703.307 397.409 703.307 402.522V414.269C703.307 419.382 699.146 423.542 694.034 423.542Z" fill="white" stroke="#7700D1" stroke-width="2"/>
<mask id="path-45-inside-1_5441_13" fill="white">
<path d="M918.464 480.513L909.535 464.899L915.283 407.921C918.196 379.053 906.688 350.657 884.501 331.96L837.666 292.495L788.809 207.066C785.711 201.651 780.69 197.765 774.67 196.126C768.65 194.487 762.351 195.289 756.936 198.387L726.579 215.749V180.237C726.579 163.013 712.566 149 695.342 149H582.237C565.013 149 551 163.013 551 180.237V416.993C551 433.141 563.315 446.465 579.046 448.069V512.28C579.046 514.868 580.352 517.241 582.539 518.626C584.728 520.011 587.432 520.176 589.771 519.068L601.965 513.295L617.708 520.117C618.658 520.528 619.675 520.734 620.692 520.734C621.747 520.734 622.803 520.513 623.785 520.07L638.83 513.274L654.493 520.1C656.483 520.967 658.75 520.933 660.711 520.004L674.831 513.314L687.948 519.201C690.282 520.248 692.957 520.044 695.104 518.653C697.251 517.263 698.534 514.906 698.534 512.348V448.069C714.264 446.465 726.579 433.141 726.579 416.993V398.536L733.444 410.539C734.188 411.838 735.044 413.047 735.996 414.16L733.61 426.097C732.591 431.196 733.619 436.385 736.503 440.711C739.387 445.037 743.784 447.981 748.882 448.999C750.166 449.256 751.457 449.383 752.737 449.383C756.541 449.383 760.26 448.264 763.496 446.107C763.553 446.069 763.606 446.029 763.662 445.991C766.421 450.219 770.807 453.382 776.137 454.448C777.403 454.701 778.673 454.823 779.932 454.823C783.16 454.823 786.308 454.008 789.105 452.513C796.133 473.263 808.602 492.056 825.383 506.565L829.297 509.95L838.588 526.195C839.616 527.993 841.495 529 843.427 529C844.364 529 845.314 528.763 846.186 528.264C848.855 526.738 849.782 523.336 848.255 520.667L838.492 503.596C838.18 503.049 837.778 502.56 837.301 502.148L832.668 498.142C809.421 478.042 795.266 448.909 793.833 418.21L791.895 376.697C791.772 374.066 791.016 371.466 789.708 369.177L770.679 335.906C769.279 333.458 768.916 330.612 769.657 327.891C770.399 325.17 772.155 322.9 774.603 321.501C777.051 320.101 779.896 319.736 782.618 320.479C785.339 321.22 787.609 322.976 789.008 325.424L799.641 344.015C801.168 346.685 804.57 347.61 807.238 346.085C809.908 344.558 810.834 341.156 809.308 338.487L798.676 319.896C795.799 314.866 791.136 311.257 785.545 309.734C779.954 308.212 774.104 308.958 769.075 311.835C758.691 317.773 755.075 331.053 761.014 341.436L780.042 374.707C780.479 375.471 780.731 376.339 780.772 377.217L781.697 397.023L759.789 409.553C756.955 411.174 753.66 411.595 750.51 410.736C747.36 409.878 744.733 407.845 743.112 405.011L699.315 328.432C697.787 325.762 694.385 324.835 691.717 326.363C689.048 327.889 688.121 331.291 689.648 333.961L699.829 351.763C698.179 350.631 696.184 349.965 694.035 349.965H679.679C674.014 349.965 669.406 354.573 669.406 360.238V371.986C669.406 377.65 674.014 382.258 679.679 382.258H694.035C699.7 382.258 704.308 377.65 704.308 371.986V360.238C704.308 360 704.288 359.766 704.272 359.531L715.444 379.065C715.444 379.065 715.444 401.988 715.444 416.994C715.444 432 708 437.095 695.343 437.095C682.687 437.095 582.237 437.095 582.237 437.095C571.153 437.095 562.136 428.078 562.136 416.994V180.237C562.136 169.153 571.153 160.136 582.237 160.136H695.342C706.425 160.136 715.443 169.153 715.443 180.237V222.118L704.306 228.487V200.049C704.306 195.106 700.285 191.084 695.342 191.084H582.237C577.294 191.084 573.272 195.106 573.272 200.049V223.812C573.272 226.887 575.765 229.38 578.84 229.38C581.915 229.38 584.408 226.887 584.408 223.812V202.22H693.17V234.855L668.082 249.205C657.92 255.016 653.779 267.359 657.911 277.955H584.408V247.541C584.408 244.466 581.915 241.973 578.84 241.973C575.765 241.973 573.272 244.466 573.272 247.541V280.126C573.272 285.069 577.294 289.091 582.237 289.091H663.985L677.866 313.363C679.394 316.031 682.795 316.958 685.464 315.432C688.134 313.905 689.06 310.504 687.533 307.834L669.069 275.55C665.723 269.699 667.761 262.218 673.611 258.872L762.466 208.055C765.3 206.434 768.594 206.013 771.744 206.872C774.894 207.729 777.522 209.763 779.142 212.597L853.184 342.059C854.805 344.893 855.225 348.189 854.367 351.339C853.509 354.489 851.476 357.115 848.643 358.736L827.728 370.697L821.087 359.084C819.56 356.415 816.157 355.489 813.489 357.015C810.82 358.542 809.894 361.943 811.42 364.613L826.441 390.877C827.469 392.674 829.348 393.682 831.279 393.682C832.217 393.682 833.166 393.445 834.039 392.946C836.708 391.42 837.634 388.018 836.108 385.348L833.257 380.364L854.171 368.403C859.587 365.306 863.473 360.284 865.112 354.265C866.751 348.245 865.948 341.947 862.851 336.531L853.743 320.606L877.325 340.477C896.699 356.803 906.747 381.598 904.204 406.805L898.277 465.558C898.16 466.712 898.408 467.874 898.984 468.882L908.799 486.044C909.827 487.841 911.706 488.849 913.637 488.849C914.575 488.849 915.524 488.612 916.397 488.113C919.066 486.584 919.991 483.182 918.464 480.513ZM782.709 418.731C783.065 426.34 784.137 433.861 785.869 441.202C783.93 443.166 781.099 444.083 778.32 443.528C773.816 442.629 770.885 438.232 771.784 433.729L775.894 413.171L782.278 409.519L782.709 418.731ZM753.757 422.312C756.965 422.312 760.136 421.634 763.108 420.322L760.864 431.545C760.429 433.726 759.169 435.608 757.318 436.842C755.466 438.078 753.246 438.516 751.065 438.08C748.883 437.644 747.002 436.384 745.768 434.533C744.533 432.683 744.093 430.462 744.53 428.28L745.99 420.979C746.513 421.161 747.042 421.333 747.583 421.48C749.624 422.037 751.697 422.312 753.757 422.312ZM693.17 371.122H680.541V361.101H693.17V371.122ZM687.397 506.748L677.863 502.469C675.855 501.57 673.564 501.593 671.573 502.535L657.433 509.233L641.804 502.423C639.864 501.576 637.643 501.591 635.711 502.463L620.662 509.261L604.887 502.425C603.933 502.011 602.916 501.805 601.899 501.805C600.8 501.805 599.702 502.046 598.685 502.527L590.181 506.553V448.231H687.397V506.748Z"/>
</mask>
<path d="M918.464 480.513L909.535 464.899L915.283 407.921C918.196 379.053 906.688 350.657 884.501 331.96L837.666 292.495L788.809 207.066C785.711 201.651 780.69 197.765 774.67 196.126C768.65 194.487 762.351 195.289 756.936 198.387L726.579 215.749V180.237C726.579 163.013 712.566 149 695.342 149H582.237C565.013 149 551 163.013 551 180.237V416.993C551 433.141 563.315 446.465 579.046 448.069V512.28C579.046 514.868 580.352 517.241 582.539 518.626C584.728 520.011 587.432 520.176 589.771 519.068L601.965 513.295L617.708 520.117C618.658 520.528 619.675 520.734 620.692 520.734C621.747 520.734 622.803 520.513 623.785 520.07L638.83 513.274L654.493 520.1C656.483 520.967 658.75 520.933 660.711 520.004L674.831 513.314L687.948 519.201C690.282 520.248 692.957 520.044 695.104 518.653C697.251 517.263 698.534 514.906 698.534 512.348V448.069C714.264 446.465 726.579 433.141 726.579 416.993V398.536L733.444 410.539C734.188 411.838 735.044 413.047 735.996 414.16L733.61 426.097C732.591 431.196 733.619 436.385 736.503 440.711C739.387 445.037 743.784 447.981 748.882 448.999C750.166 449.256 751.457 449.383 752.737 449.383C756.541 449.383 760.26 448.264 763.496 446.107C763.553 446.069 763.606 446.029 763.662 445.991C766.421 450.219 770.807 453.382 776.137 454.448C777.403 454.701 778.673 454.823 779.932 454.823C783.16 454.823 786.308 454.008 789.105 452.513C796.133 473.263 808.602 492.056 825.383 506.565L829.297 509.95L838.588 526.195C839.616 527.993 841.495 529 843.427 529C844.364 529 845.314 528.763 846.186 528.264C848.855 526.738 849.782 523.336 848.255 520.667L838.492 503.596C838.18 503.049 837.778 502.56 837.301 502.148L832.668 498.142C809.421 478.042 795.266 448.909 793.833 418.21L791.895 376.697C791.772 374.066 791.016 371.466 789.708 369.177L770.679 335.906C769.279 333.458 768.916 330.612 769.657 327.891C770.399 325.17 772.155 322.9 774.603 321.501C777.051 320.101 779.896 319.736 782.618 320.479C785.339 321.22 787.609 322.976 789.008 325.424L799.641 344.015C801.168 346.685 804.57 347.61 807.238 346.085C809.908 344.558 810.834 341.156 809.308 338.487L798.676 319.896C795.799 314.866 791.136 311.257 785.545 309.734C779.954 308.212 774.104 308.958 769.075 311.835C758.691 317.773 755.075 331.053 761.014 341.436L780.042 374.707C780.479 375.471 780.731 376.339 780.772 377.217L781.697 397.023L759.789 409.553C756.955 411.174 753.66 411.595 750.51 410.736C747.36 409.878 744.733 407.845 743.112 405.011L699.315 328.432C697.787 325.762 694.385 324.835 691.717 326.363C689.048 327.889 688.121 331.291 689.648 333.961L699.829 351.763C698.179 350.631 696.184 349.965 694.035 349.965H679.679C674.014 349.965 669.406 354.573 669.406 360.238V371.986C669.406 377.65 674.014 382.258 679.679 382.258H694.035C699.7 382.258 704.308 377.65 704.308 371.986V360.238C704.308 360 704.288 359.766 704.272 359.531L715.444 379.065C715.444 379.065 715.444 401.988 715.444 416.994C715.444 432 708 437.095 695.343 437.095C682.687 437.095 582.237 437.095 582.237 437.095C571.153 437.095 562.136 428.078 562.136 416.994V180.237C562.136 169.153 571.153 160.136 582.237 160.136H695.342C706.425 160.136 715.443 169.153 715.443 180.237V222.118L704.306 228.487V200.049C704.306 195.106 700.285 191.084 695.342 191.084H582.237C577.294 191.084 573.272 195.106 573.272 200.049V223.812C573.272 226.887 575.765 229.38 578.84 229.38C581.915 229.38 584.408 226.887 584.408 223.812V202.22H693.17V234.855L668.082 249.205C657.92 255.016 653.779 267.359 657.911 277.955H584.408V247.541C584.408 244.466 581.915 241.973 578.84 241.973C575.765 241.973 573.272 244.466 573.272 247.541V280.126C573.272 285.069 577.294 289.091 582.237 289.091H663.985L677.866 313.363C679.394 316.031 682.795 316.958 685.464 315.432C688.134 313.905 689.06 310.504 687.533 307.834L669.069 275.55C665.723 269.699 667.761 262.218 673.611 258.872L762.466 208.055C765.3 206.434 768.594 206.013 771.744 206.872C774.894 207.729 777.522 209.763 779.142 212.597L853.184 342.059C854.805 344.893 855.225 348.189 854.367 351.339C853.509 354.489 851.476 357.115 848.643 358.736L827.728 370.697L821.087 359.084C819.56 356.415 816.157 355.489 813.489 357.015C810.82 358.542 809.894 361.943 811.42 364.613L826.441 390.877C827.469 392.674 829.348 393.682 831.279 393.682C832.217 393.682 833.166 393.445 834.039 392.946C836.708 391.42 837.634 388.018 836.108 385.348L833.257 380.364L854.171 368.403C859.587 365.306 863.473 360.284 865.112 354.265C866.751 348.245 865.948 341.947 862.851 336.531L853.743 320.606L877.325 340.477C896.699 356.803 906.747 381.598 904.204 406.805L898.277 465.558C898.16 466.712 898.408 467.874 898.984 468.882L908.799 486.044C909.827 487.841 911.706 488.849 913.637 488.849C914.575 488.849 915.524 488.612 916.397 488.113C919.066 486.584 919.991 483.182 918.464 480.513ZM782.709 418.731C783.065 426.34 784.137 433.861 785.869 441.202C783.93 443.166 781.099 444.083 778.32 443.528C773.816 442.629 770.885 438.232 771.784 433.729L775.894 413.171L782.278 409.519L782.709 418.731ZM753.757 422.312C756.965 422.312 760.136 421.634 763.108 420.322L760.864 431.545C760.429 433.726 759.169 435.608 757.318 436.842C755.466 438.078 753.246 438.516 751.065 438.08C748.883 437.644 747.002 436.384 745.768 434.533C744.533 432.683 744.093 430.462 744.53 428.28L745.99 420.979C746.513 421.161 747.042 421.333 747.583 421.48C749.624 422.037 751.697 422.312 753.757 422.312ZM693.17 371.122H680.541V361.101H693.17V371.122ZM687.397 506.748L677.863 502.469C675.855 501.57 673.564 501.593 671.573 502.535L657.433 509.233L641.804 502.423C639.864 501.576 637.643 501.591 635.711 502.463L620.662 509.261L604.887 502.425C603.933 502.011 602.916 501.805 601.899 501.805C600.8 501.805 599.702 502.046 598.685 502.527L590.181 506.553V448.231H687.397V506.748Z" fill="white"/>
<path d="M918.464 480.513L909.535 464.899L915.283 407.921C918.196 379.053 906.688 350.657 884.501 331.96L837.666 292.495L788.809 207.066C785.711 201.651 780.69 197.765 774.67 196.126C768.65 194.487 762.351 195.289 756.936 198.387L726.579 215.749V180.237C726.579 163.013 712.566 149 695.342 149H582.237C565.013 149 551 163.013 551 180.237V416.993C551 433.141 563.315 446.465 579.046 448.069V512.28C579.046 514.868 580.352 517.241 582.539 518.626C584.728 520.011 587.432 520.176 589.771 519.068L601.965 513.295L617.708 520.117C618.658 520.528 619.675 520.734 620.692 520.734C621.747 520.734 622.803 520.513 623.785 520.07L638.83 513.274L654.493 520.1C656.483 520.967 658.75 520.933 660.711 520.004L674.831 513.314L687.948 519.201C690.282 520.248 692.957 520.044 695.104 518.653C697.251 517.263 698.534 514.906 698.534 512.348V448.069C714.264 446.465 726.579 433.141 726.579 416.993V398.536L733.444 410.539C734.188 411.838 735.044 413.047 735.996 414.16L733.61 426.097C732.591 431.196 733.619 436.385 736.503 440.711C739.387 445.037 743.784 447.981 748.882 448.999C750.166 449.256 751.457 449.383 752.737 449.383C756.541 449.383 760.26 448.264 763.496 446.107C763.553 446.069 763.606 446.029 763.662 445.991C766.421 450.219 770.807 453.382 776.137 454.448C777.403 454.701 778.673 454.823 779.932 454.823C783.16 454.823 786.308 454.008 789.105 452.513C796.133 473.263 808.602 492.056 825.383 506.565L829.297 509.95L838.588 526.195C839.616 527.993 841.495 529 843.427 529C844.364 529 845.314 528.763 846.186 528.264C848.855 526.738 849.782 523.336 848.255 520.667L838.492 503.596C838.18 503.049 837.778 502.56 837.301 502.148L832.668 498.142C809.421 478.042 795.266 448.909 793.833 418.21L791.895 376.697C791.772 374.066 791.016 371.466 789.708 369.177L770.679 335.906C769.279 333.458 768.916 330.612 769.657 327.891C770.399 325.17 772.155 322.9 774.603 321.501C777.051 320.101 779.896 319.736 782.618 320.479C785.339 321.22 787.609 322.976 789.008 325.424L799.641 344.015C801.168 346.685 804.57 347.61 807.238 346.085C809.908 344.558 810.834 341.156 809.308 338.487L798.676 319.896C795.799 314.866 791.136 311.257 785.545 309.734C779.954 308.212 774.104 308.958 769.075 311.835C758.691 317.773 755.075 331.053 761.014 341.436L780.042 374.707C780.479 375.471 780.731 376.339 780.772 377.217L781.697 397.023L759.789 409.553C756.955 411.174 753.66 411.595 750.51 410.736C747.36 409.878 744.733 407.845 743.112 405.011L699.315 328.432C697.787 325.762 694.385 324.835 691.717 326.363C689.048 327.889 688.121 331.291 689.648 333.961L699.829 351.763C698.179 350.631 696.184 349.965 694.035 349.965H679.679C674.014 349.965 669.406 354.573 669.406 360.238V371.986C669.406 377.65 674.014 382.258 679.679 382.258H694.035C699.7 382.258 704.308 377.65 704.308 371.986V360.238C704.308 360 704.288 359.766 704.272 359.531L715.444 379.065C715.444 379.065 715.444 401.988 715.444 416.994C715.444 432 708 437.095 695.343 437.095C682.687 437.095 582.237 437.095 582.237 437.095C571.153 437.095 562.136 428.078 562.136 416.994V180.237C562.136 169.153 571.153 160.136 582.237 160.136H695.342C706.425 160.136 715.443 169.153 715.443 180.237V222.118L704.306 228.487V200.049C704.306 195.106 700.285 191.084 695.342 191.084H582.237C577.294 191.084 573.272 195.106 573.272 200.049V223.812C573.272 226.887 575.765 229.38 578.84 229.38C581.915 229.38 584.408 226.887 584.408 223.812V202.22H693.17V234.855L668.082 249.205C657.92 255.016 653.779 267.359 657.911 277.955H584.408V247.541C584.408 244.466 581.915 241.973 578.84 241.973C575.765 241.973 573.272 244.466 573.272 247.541V280.126C573.272 285.069 577.294 289.091 582.237 289.091H663.985L677.866 313.363C679.394 316.031 682.795 316.958 685.464 315.432C688.134 313.905 689.06 310.504 687.533 307.834L669.069 275.55C665.723 269.699 667.761 262.218 673.611 258.872L762.466 208.055C765.3 206.434 768.594 206.013 771.744 206.872C774.894 207.729 777.522 209.763 779.142 212.597L853.184 342.059C854.805 344.893 855.225 348.189 854.367 351.339C853.509 354.489 851.476 357.115 848.643 358.736L827.728 370.697L821.087 359.084C819.56 356.415 816.157 355.489 813.489 357.015C810.82 358.542 809.894 361.943 811.42 364.613L826.441 390.877C827.469 392.674 829.348 393.682 831.279 393.682C832.217 393.682 833.166 393.445 834.039 392.946C836.708 391.42 837.634 388.018 836.108 385.348L833.257 380.364L854.171 368.403C859.587 365.306 863.473 360.284 865.112 354.265C866.751 348.245 865.948 341.947 862.851 336.531L853.743 320.606L877.325 340.477C896.699 356.803 906.747 381.598 904.204 406.805L898.277 465.558C898.16 466.712 898.408 467.874 898.984 468.882L908.799 486.044C909.827 487.841 911.706 488.849 913.637 488.849C914.575 488.849 915.524 488.612 916.397 488.113C919.066 486.584 919.991 483.182 918.464 480.513ZM782.709 418.731C783.065 426.34 784.137 433.861 785.869 441.202C783.93 443.166 781.099 444.083 778.32 443.528C773.816 442.629 770.885 438.232 771.784 433.729L775.894 413.171L782.278 409.519L782.709 418.731ZM753.757 422.312C756.965 422.312 760.136 421.634 763.108 420.322L760.864 431.545C760.429 433.726 759.169 435.608 757.318 436.842C755.466 438.078 753.246 438.516 751.065 438.08C748.883 437.644 747.002 436.384 745.768 434.533C744.533 432.683 744.093 430.462 744.53 428.28L745.99 420.979C746.513 421.161 747.042 421.333 747.583 421.48C749.624 422.037 751.697 422.312 753.757 422.312ZM693.17 371.122H680.541V361.101H693.17V371.122ZM687.397 506.748L677.863 502.469C675.855 501.57 673.564 501.593 671.573 502.535L657.433 509.233L641.804 502.423C639.864 501.576 637.643 501.591 635.711 502.463L620.662 509.261L604.887 502.425C603.933 502.011 602.916 501.805 601.899 501.805C600.8 501.805 599.702 502.046 598.685 502.527L590.181 506.553V448.231H687.397V506.748Z" stroke="#7700D1" stroke-width="4" mask="url(#path-45-inside-1_5441_13)"/>
<path d="M760.536 243.816L760.536 243.816C749.828 240.9 738.631 242.327 728.996 247.837C719.363 253.347 712.455 262.274 709.539 272.983L760.536 243.816ZM760.536 243.816C762.971 244.479 764.406 246.989 763.744 249.424M760.536 243.816L763.744 249.424M712.746 278.591L712.746 278.591C713.15 278.701 713.554 278.753 713.95 278.753C715.959 278.753 717.801 277.415 718.354 275.384C720.628 267.034 726.02 260.064 733.532 255.769C741.045 251.472 749.785 250.358 758.136 252.632L712.746 278.591ZM712.746 278.591C710.312 277.928 708.876 275.418 709.539 272.983L712.746 278.591ZM763.744 249.424C763.081 251.857 760.569 253.294 758.136 252.632L763.744 249.424Z" fill="white" stroke="#7700D1" stroke-width="2"/>
<path d="M734.243 284.443L734.244 284.443C734.647 284.553 735.051 284.606 735.447 284.606C737.456 284.606 739.298 283.268 739.851 281.237C740.562 278.623 742.248 276.441 744.591 275.101L744.591 275.1C746.935 273.761 749.67 273.415 752.282 274.127C754.715 274.788 757.227 273.353 757.891 270.92L734.243 284.443ZM734.243 284.443C731.809 283.781 730.373 281.27 731.036 278.836L734.243 284.443ZM740.055 267.17C744.52 264.617 749.713 263.958 754.684 265.312L740.055 267.17ZM754.684 265.312C757.118 265.975 758.554 268.486 757.891 270.92L754.684 265.312ZM731.036 278.835C732.39 273.862 735.591 269.722 740.055 267.17L731.036 278.835Z" fill="white" stroke="#7700D1" stroke-width="2"/>
<path d="M750.561 285.541L750.561 285.541C748.372 286.793 747.611 289.584 748.864 291.774C748.864 291.774 748.864 291.774 748.864 291.774L750.713 295.008C751.556 296.482 753.095 297.31 754.683 297.31C755.451 297.31 756.229 297.116 756.946 296.706L757.443 297.574L756.946 296.706C759.136 295.454 759.896 292.663 758.644 290.472L750.561 285.541ZM750.561 285.541C752.75 284.288 755.541 285.048 756.794 287.239C756.794 287.239 756.794 287.239 756.794 287.239L758.644 290.472L750.561 285.541Z" fill="white" stroke="#7700D1" stroke-width="2"/>
<rect x="659.995" y="356.701" width="39.0325" height="39.7442" transform="rotate(-29.7722 659.995 356.701)" fill="#7700D1"/>
<path d="M692.542 372.122H693.542V371.122V361.101V360.101H692.542H679.911H678.911V361.101V371.122V372.122H679.911H692.542ZM693.405 350.965C698.518 350.965 702.678 355.125 702.678 360.237V371.985C702.678 377.097 698.518 381.257 693.405 381.257H679.048C673.936 381.257 669.775 377.097 669.775 371.985V360.237C669.775 355.125 673.936 350.965 679.048 350.965H693.405Z" fill="white" stroke="#7700D1" stroke-width="2"/>
<rect x="678.903" y="311.168" width="7.24946" height="30.1653" transform="rotate(-29.6467 678.903 311.168)" fill="white"/>
<rect x="798.58" y="338.143" width="7.33374" height="30.1653" transform="rotate(-29.6467 798.58 338.143)" fill="white"/>
<path d="M838.042 301.334L852.068 321.649L855.121 319.199L838.042 301.334Z" fill="#7700D1"/>
<rect x="575.272" y="220.618" width="7.15535" height="30.1653" fill="white"/>
<path d="M883.765 187.468C883.216 187.468 882.765 186.811 882.765 186.014V174.922C882.765 174.124 883.216 173.468 883.765 173.468C884.313 173.468 884.765 174.124 884.765 174.922V186.014C884.765 186.811 884.313 187.468 883.765 187.468Z" fill="white"/>
<path d="M889.312 181.183H878.219C877.422 181.183 876.765 180.69 876.765 180.104C876.765 179.518 877.422 179.025 878.219 179.025H889.312C890.109 179.025 890.765 179.518 890.765 180.104C890.765 180.69 890.109 181.183 889.312 181.183Z" fill="white"/>
<path d="M441.765 266.724C441.217 266.724 440.765 266.067 440.765 265.27V254.178C440.765 253.38 441.217 252.724 441.765 252.724C442.314 252.724 442.765 253.38 442.765 254.178V265.27C442.765 266.067 442.314 266.724 441.765 266.724Z" fill="white"/>
<path d="M447.312 260.439H436.22C435.423 260.439 434.766 259.946 434.766 259.36C434.766 258.774 435.423 258.281 436.22 258.281H447.312C448.109 258.281 448.766 258.774 448.766 259.36C448.766 259.946 448.109 260.439 447.312 260.439Z" fill="white"/>
<path d="M307.61 140.963H351.275C352.52 140.963 353.508 139.955 353.508 138.728C353.508 137.482 352.5 136.493 351.275 136.493H307.61C306.365 136.493 305.378 137.502 305.378 138.728C305.378 139.955 306.385 140.963 307.61 140.963Z" fill="white"/>
<path d="M326.361 150.14H374.65C382.948 150.14 389.686 143.396 389.686 135.089C389.686 126.783 382.948 120.038 374.65 120.038C372.635 120.038 370.659 120.434 368.841 121.205C367.833 118.337 366.075 115.747 363.724 113.749C360.562 111.039 356.532 109.536 352.363 109.536C346.495 109.536 341.081 112.523 337.86 117.25C336.062 115.252 333.039 113.195 328.238 113.195C321.027 113.195 315.178 119.069 315.178 126.268C315.178 127.514 316.186 128.503 317.411 128.503C318.656 128.503 319.643 127.495 319.643 126.268C319.643 121.522 323.496 117.685 328.218 117.685C334.146 117.685 335.865 122.273 335.924 122.471V122.451L340.152 122.511C342.029 117.428 346.929 114.026 352.363 114.026C358.745 114.026 364.139 118.614 365.186 124.923L368.663 126.407C370.441 125.181 372.496 124.528 374.65 124.528C380.479 124.528 385.201 129.275 385.201 135.089C385.201 140.924 380.459 145.651 374.65 145.651H326.361C325.116 145.651 324.129 146.659 324.129 147.885C324.109 149.131 325.116 150.14 326.361 150.14Z" fill="white"/>
<path d="M961.159 292.942H1009.43C1017.73 292.942 1024.46 286.197 1024.46 277.891C1024.46 269.584 1017.73 262.84 1009.43 262.84C1007.41 262.84 1005.44 263.235 1003.62 264.007C1002.61 261.139 1000.85 258.548 998.502 256.551C995.341 253.841 991.31 252.338 987.141 252.338C977.499 252.338 969.655 260.19 969.655 269.841C969.655 271.087 970.663 272.076 971.888 272.076C973.113 272.076 974.121 271.067 974.121 269.841C974.121 262.662 979.949 256.827 987.121 256.827C993.503 256.827 998.897 261.416 999.944 267.725L1003.42 269.208C1005.2 267.982 1007.25 267.329 1009.41 267.329C1015.24 267.329 1019.96 272.076 1019.96 277.891C1019.96 283.725 1015.22 288.452 1009.41 288.452H961.12C959.875 288.452 958.887 289.461 958.887 290.687C958.887 291.913 959.915 292.942 961.159 292.942Z" fill="white"/>
<path d="M947.369 283.765H991.034C992.279 283.765 993.267 282.756 993.267 281.53C993.267 280.284 992.259 279.295 991.034 279.295H947.369C946.124 279.295 945.136 280.304 945.136 281.53C945.136 282.776 946.144 283.765 947.369 283.765Z" fill="white"/>
<defs>
<clipPath id="clip0_5441_13">
<rect width="391" height="657" fill="white" transform="translate(0 19)"/>
</clipPath>
<clipPath id="clip1_5441_13">
<rect width="407" height="657" fill="white" transform="translate(1059.28 19)"/>
</clipPath>
</defs>
</svg>
