<svg width="1916" height="835" viewBox="0 0 1916 835" fill="none" xmlns="http://www.w3.org/2000/svg">
<g opacity="0.05" clip-path="url(#clip0_5414_2)">
<path d="M-1.56506 775H1912.46C1914.41 775 1916 773.567 1916 771.802C1916 770.038 1914.41 768.604 1912.46 768.604H-1.56506C-3.51794 768.604 -5.10461 770.038 -5.10461 771.802C-5.10461 773.567 -3.51794 775 -1.56506 775Z" fill="white"/>
<path d="M1505.84 749.583C1506.78 749.583 1507.66 749.197 1508.27 748.425L1561.09 685.516C1562.25 684.138 1562.03 682.153 1560.71 680.995C1559.33 679.837 1557.35 680.058 1556.19 681.381L1503.42 744.29C1502.26 745.668 1502.48 747.653 1503.8 748.811C1504.41 749.307 1505.13 749.583 1505.84 749.583Z" fill="white"/>
<path d="M1505.18 730.892C1506.06 730.892 1507 730.506 1507.6 729.734L1530.8 702.387C1531.95 701.064 1531.79 699.024 1530.41 697.866C1529.09 696.708 1527.05 696.874 1525.89 698.252L1502.7 725.599C1501.55 726.922 1501.71 728.962 1503.09 730.12C1503.69 730.616 1504.47 730.892 1505.18 730.892Z" fill="white"/>
<path d="M1558.72 756.861C1559.6 756.861 1560.54 756.475 1561.15 755.703L1584.34 728.356C1585.49 727.033 1585.33 724.993 1583.95 723.835C1582.63 722.677 1580.59 722.842 1579.44 724.221L1556.24 751.568C1555.09 752.891 1555.25 754.931 1556.63 756.089C1557.24 756.585 1557.95 756.861 1558.72 756.861Z" fill="white"/>
<path d="M1613.59 756.861C1614.52 756.861 1615.41 756.475 1616.01 755.703L1668.84 692.794C1669.99 691.415 1669.77 689.431 1668.45 688.273C1667.07 687.115 1665.09 687.28 1663.93 688.659L1611.11 751.568C1609.95 752.946 1610.17 754.931 1611.49 756.089C1612.1 756.585 1612.87 756.861 1613.59 756.861Z" fill="white"/>
<path d="M1633.14 714.572C1634.02 714.572 1634.96 714.186 1635.57 713.469L1665.59 678.238C1666.74 676.915 1666.58 674.875 1665.26 673.717C1663.93 672.559 1661.9 672.724 1660.74 674.048L1630.72 709.279C1629.56 710.602 1629.73 712.642 1631.05 713.8C1631.65 714.351 1632.43 714.572 1633.14 714.572Z" fill="white"/>
<path d="M1689.55 735.689C1690.43 735.689 1691.37 735.303 1691.97 734.586L1721.99 699.355C1723.15 698.031 1722.98 695.991 1721.66 694.834C1720.34 693.676 1718.3 693.841 1717.15 695.164L1687.12 730.396C1685.97 731.719 1686.13 733.759 1687.46 734.917C1688.12 735.468 1688.83 735.689 1689.55 735.689Z" fill="white"/>
<path d="M1444.31 775H1781.65L1784.84 771.802V530.311L1781.65 527.113H1722.87C1721.11 527.113 1719.68 528.547 1719.68 530.311C1719.68 532.075 1721.11 533.509 1722.87 533.509H1778.45V768.549H1447.56V533.509H1503.09C1504.85 533.509 1506.28 532.075 1506.28 530.311C1506.28 528.547 1504.85 527.113 1503.09 527.113H1444.31L1441.12 530.311V771.802L1444.31 775Z" fill="white"/>
<path d="M1504.24 567.582H1721.72L1724.91 564.384V493.26L1721.72 490.062H1504.24L1501.05 493.26V564.384L1504.24 567.582ZM1718.52 561.186H1507.44V496.458H1718.52V561.186Z" fill="white"/>
<path d="M1504.24 773.511C1506.01 773.511 1507.44 772.078 1507.44 770.313V645.267H1718.52V770.313C1718.52 772.078 1719.96 773.511 1721.72 773.511C1723.48 773.511 1724.91 772.078 1724.91 770.313V642.014L1721.72 638.816H1504.24L1501.05 642.014V770.258C1501.05 772.078 1502.48 773.511 1504.24 773.511Z" fill="white"/>
<path d="M1612.98 773.511C1614.74 773.511 1616.18 772.078 1616.18 770.313V642.014C1616.18 640.25 1614.74 638.816 1612.98 638.816C1611.22 638.816 1609.79 640.25 1609.79 642.014V770.258C1609.79 772.078 1611.22 773.511 1612.98 773.511Z" fill="white"/>
<path d="M1504.24 674.599H1721.72C1723.48 674.599 1724.91 673.166 1724.91 671.401C1724.91 669.637 1723.48 668.204 1721.72 668.204H1504.24C1502.48 668.204 1501.05 669.637 1501.05 671.401C1501.05 673.166 1502.48 674.599 1504.24 674.599Z" fill="white"/>
<path d="M1667.35 773.512C1669.11 773.512 1670.54 772.078 1670.54 770.314V671.401C1670.54 669.637 1669.11 668.204 1667.35 668.204C1665.59 668.204 1664.15 669.637 1664.15 671.401V770.314C1664.15 772.078 1665.59 773.512 1667.35 773.512Z" fill="white"/>
<path d="M1558.61 773.512C1560.38 773.512 1561.81 772.078 1561.81 770.314V671.401C1561.81 669.637 1560.38 668.204 1558.61 668.204C1556.85 668.204 1555.42 669.637 1555.42 671.401V770.314C1555.42 772.078 1556.85 773.512 1558.61 773.512Z" fill="white"/>
<path d="M1444.37 605.074H1781.65V611.47H1444.37V605.074Z" fill="white"/>
<path d="M1444.31 595.48H1569.91C1571.67 595.48 1573.1 594.047 1573.1 592.283C1573.1 590.518 1571.67 589.085 1569.91 589.085H1444.31C1442.55 589.085 1441.12 590.518 1441.12 592.283C1441.12 594.047 1442.55 595.48 1444.31 595.48Z" fill="white"/>
<path d="M1867.75 699.189C1891.87 699.189 1910.11 677.191 1910.11 648.024C1910.16 597.52 1871.93 547.954 1870.28 545.859H1865.21C1863.56 547.954 1825.39 597.465 1825.39 648.024C1825.39 677.191 1843.62 699.189 1867.75 699.189ZM1867.75 553.247C1876.34 565.322 1903.72 607.059 1903.72 648.024C1903.72 673.552 1888.24 692.794 1867.75 692.794C1847.26 692.794 1831.78 673.552 1831.78 648.024C1831.78 607.059 1859.21 565.322 1867.75 553.247Z" fill="white"/>
<path d="M1867.75 774.504C1869.51 774.504 1870.94 773.07 1870.94 771.306V631.098C1870.94 629.333 1869.51 627.9 1867.75 627.9C1865.98 627.9 1864.55 629.333 1864.55 631.098V771.306C1864.55 773.07 1865.98 774.504 1867.75 774.504Z" fill="white"/>
<path d="M468.98 713.428C488.546 713.428 503.332 695.588 503.332 671.935C503.377 630.98 472.375 590.784 471.035 589.085H466.925C465.585 590.784 434.629 630.935 434.629 671.935C434.629 695.588 449.415 713.428 468.98 713.428ZM468.98 595.076C475.949 604.868 498.15 638.715 498.15 671.935C498.15 692.637 485.598 708.241 468.98 708.241C452.363 708.241 439.81 692.637 439.81 671.935C439.81 638.715 462.056 604.868 468.98 595.076Z" fill="white"/>
<path d="M468.98 774.504C470.41 774.504 471.571 773.341 471.571 771.91V658.209C471.571 656.778 470.41 655.615 468.98 655.615C467.551 655.615 466.389 656.778 466.389 658.209V771.91C466.389 773.341 467.551 774.504 468.98 774.504Z" fill="white"/>
<path d="M1392.2 775C1393.96 775 1395.39 773.566 1395.39 771.802V704.041C1395.39 702.277 1393.96 700.843 1392.2 700.843C1390.44 700.843 1389 702.277 1389 704.041V771.802C1389 773.566 1390.44 775 1392.2 775Z" fill="white"/>
<path d="M1369.56 707.018H1414.73L1418.14 703.6V679.561L1414.73 676.143H1369.56L1366.14 679.561V703.6L1369.56 707.018ZM1411.37 700.182H1372.97V682.924H1411.37V700.182Z" fill="white"/>
</g>
<path d="M603.042 582.437C584.766 582.438 546.179 600.268 513.373 524.337C480.566 448.405 427.921 478.511 431.195 524.337C434.468 570.163 352.452 527.447 383.458 586.849C409.602 636.936 257.603 660.686 249.29 619.124" stroke="white" stroke-width="2" stroke-dasharray="6 3"/>
<path opacity="0.97" d="M250.675 613.824C250.989 613.537 258.384 606.455 265.883 595.977C276.1 581.684 281.274 568.514 281.274 556.807C281.274 538.803 266.641 524.17 248.637 524.17C230.633 524.17 216 538.803 216 556.807C216 568.409 221.174 581.579 231.391 595.899C238.89 606.403 246.285 613.537 246.599 613.824H250.675ZM248.637 530.102C263.375 530.102 275.343 542.096 275.343 556.807C275.343 577.921 255.222 600.628 248.637 607.475C242.078 600.576 221.931 577.764 221.931 556.807C221.931 542.069 233.899 530.102 248.637 530.102Z" fill="white"/>
<path opacity="0.97" d="M248.637 571.858C256.947 571.858 263.688 565.117 263.688 556.807C263.688 548.498 256.947 541.756 248.637 541.756C240.327 541.756 233.586 548.498 233.586 556.807C233.586 565.117 240.327 571.858 248.637 571.858ZM248.637 547.688C253.68 547.688 257.757 551.79 257.757 556.807C257.757 561.85 253.654 565.927 248.637 565.927C243.62 565.927 239.517 561.824 239.517 556.807C239.517 551.764 243.594 547.688 248.637 547.688Z" fill="white"/>
<g opacity="0.97">
<g opacity="0.97">
<path opacity="0.97" d="M1307.6 458.919C1307.29 458.631 1299.89 451.55 1292.39 441.071C1282.17 426.778 1277 413.608 1277 401.901C1277 383.897 1291.63 369.264 1309.64 369.264C1327.64 369.264 1342.27 383.897 1342.27 401.901C1342.27 413.503 1337.1 426.673 1326.88 440.993C1319.38 451.497 1311.99 458.631 1311.68 458.919H1307.6ZM1309.64 375.196C1294.9 375.196 1282.93 387.19 1282.93 401.901C1282.93 423.041 1303.05 445.723 1309.64 452.569C1316.2 445.67 1336.34 422.832 1336.34 401.901C1336.34 387.164 1324.37 375.196 1309.64 375.196Z" fill="#8C5FB2"/>
<path opacity="0.97" d="M1309.64 416.953C1301.33 416.953 1294.59 410.211 1294.59 401.901C1294.59 393.592 1301.33 386.85 1309.64 386.85C1317.95 386.85 1324.69 393.592 1324.69 401.901C1324.69 410.211 1317.95 416.953 1309.64 416.953ZM1309.64 392.782C1304.59 392.782 1300.52 396.858 1300.52 401.901C1300.52 406.945 1304.62 411.021 1309.64 411.021C1314.68 411.021 1318.76 406.918 1318.76 401.901C1318.76 396.884 1314.68 392.782 1309.64 392.782Z" fill="#8C5FB2"/>
</g>
</g>
<g opacity="0.4">
<path d="M956 835C955.452 835 955 834.343 955 833.546V822.454C955 821.657 955.452 821 956 821C956.549 821 957 821.657 957 822.454V833.546C957 834.343 956.549 835 956 835Z" fill="white"/>
<path d="M961.545 828.715H950.453C949.656 828.715 948.999 828.223 948.999 827.636C948.999 827.05 949.656 826.558 950.453 826.558H961.545C962.343 826.558 962.999 827.05 962.999 827.636C962.999 828.223 962.343 828.715 961.545 828.715Z" fill="white"/>
</g>
<g opacity="0.2">
<path d="M1534 374C1533.45 374 1533 373.343 1533 372.546V361.454C1533 360.657 1533.45 360 1534 360C1534.55 360 1535 360.657 1535 361.454V372.546C1535 373.343 1534.55 374 1534 374Z" fill="white"/>
<path d="M1539.55 367.715H1528.45C1527.66 367.715 1527 367.223 1527 366.636C1527 366.05 1527.66 365.558 1528.45 365.558H1539.55C1540.34 365.558 1541 366.05 1541 366.636C1541 367.223 1540.34 367.715 1539.55 367.715Z" fill="white"/>
</g>
<g opacity="0.3">
<path d="M1340 14C1339.45 14 1339 13.3434 1339 12.5461V1.45394C1339 0.656616 1339.45 0 1340 0C1340.55 0 1341 0.656616 1341 1.45394V12.5461C1341 13.3434 1340.55 14 1340 14Z" fill="#4C1D6F"/>
<path d="M1345.55 7.71507H1334.46C1333.66 7.71507 1333 7.22261 1333 6.63634C1333 6.05008 1333.66 5.55762 1334.46 5.55762H1345.55C1346.34 5.55762 1347 6.05008 1347 6.63634C1347 7.22261 1346.34 7.71507 1345.55 7.71507Z" fill="#4C1D6F"/>
</g>
<path d="M1331.07 306.204C1355.33 275.159 1413.8 215.786 1453.56 226.651C1488.3 236.144 1493.21 266.933 1471.58 275.422C1449.94 283.911 1405.78 244.806 1441.85 207.294C1486.73 160.6 1549.7 260.769 1605.42 274.958C1646.48 285.416 1655.95 247.518 1655.19 238.68" stroke="white" stroke-width="2" stroke-dasharray="6 3"/>
<g opacity="0.97">
<path opacity="0.97" d="M1653.02 235.094C1652.73 234.831 1645.96 228.347 1639.09 218.752C1629.74 205.664 1625 193.604 1625 182.885C1625 166.399 1638.4 153 1654.89 153C1671.37 153 1684.77 166.399 1684.77 182.885C1684.77 193.509 1680.03 205.568 1670.68 218.68C1663.81 228.299 1657.04 234.831 1656.75 235.094H1653.02ZM1654.89 158.431C1641.39 158.431 1630.43 169.414 1630.43 182.885C1630.43 202.242 1648.86 223.011 1654.89 229.28C1660.89 222.963 1679.34 202.051 1679.34 182.885C1679.34 169.39 1668.38 158.431 1654.89 158.431Z" fill="white"/>
<path opacity="0.97" d="M1654.89 196.667C1647.28 196.667 1641.1 190.494 1641.1 182.885C1641.1 175.276 1647.28 169.103 1654.89 169.103C1662.49 169.103 1668.67 175.276 1668.67 182.885C1668.67 190.494 1662.49 196.667 1654.89 196.667ZM1654.89 174.534C1650.27 174.534 1646.54 178.267 1646.54 182.885C1646.54 187.503 1650.29 191.236 1654.89 191.236C1659.5 191.236 1663.24 187.479 1663.24 182.885C1663.24 178.291 1659.5 174.534 1654.89 174.534Z" fill="white"/>
</g>
<g opacity="0.2">
<path d="M353.767 247.119H397.432C398.677 247.119 399.665 246.111 399.665 244.885C399.665 243.639 398.657 242.65 397.432 242.65H353.767C352.522 242.65 351.534 243.658 351.534 244.885C351.534 246.111 352.542 247.119 353.767 247.119Z" fill="white"/>
<path d="M372.518 256.296H420.807C429.105 256.296 435.843 249.552 435.843 241.246C435.843 232.939 429.105 226.195 420.807 226.195C418.792 226.195 416.816 226.59 414.998 227.362C413.99 224.494 412.232 221.903 409.881 219.905C406.719 217.196 402.689 215.693 398.52 215.693C392.652 215.693 387.238 218.679 384.017 223.406C382.219 221.408 379.196 219.352 374.395 219.352C367.183 219.352 361.335 225.226 361.335 232.425C361.335 233.671 362.343 234.66 363.568 234.66C364.813 234.66 365.8 233.651 365.8 232.425C365.8 227.678 369.653 223.841 374.375 223.841C380.303 223.841 382.022 228.43 382.081 228.627V228.608L386.309 228.667C388.186 223.584 393.086 220.182 398.52 220.182C404.902 220.182 410.296 224.771 411.343 231.08L414.82 232.563C416.598 231.337 418.653 230.684 420.807 230.684C426.635 230.684 431.358 235.431 431.358 241.246C431.358 247.08 426.616 251.807 420.807 251.807H372.518C371.273 251.807 370.285 252.816 370.285 254.042C370.266 255.288 371.273 256.296 372.518 256.296Z" fill="white"/>
</g>
<g opacity="0.2">
<path d="M1732.13 425.497H1780.4C1788.7 425.497 1795.43 418.753 1795.43 410.446C1795.43 402.139 1788.7 395.395 1780.4 395.395C1778.38 395.395 1776.41 395.791 1774.59 396.562C1773.58 393.694 1771.82 391.103 1769.47 389.106C1766.31 386.396 1762.28 384.893 1758.11 384.893C1748.47 384.893 1740.63 392.745 1740.63 402.396C1740.63 403.642 1741.63 404.631 1742.86 404.631C1744.08 404.631 1745.09 403.623 1745.09 402.396C1745.09 395.217 1750.92 389.383 1758.09 389.383C1764.47 389.383 1769.87 393.971 1770.91 400.28L1774.39 401.764C1776.17 400.537 1778.23 399.885 1780.38 399.885C1786.21 399.885 1790.93 404.631 1790.93 410.446C1790.93 416.28 1786.19 421.007 1780.38 421.007H1732.09C1730.85 421.007 1729.86 422.016 1729.86 423.242C1729.86 424.468 1730.88 425.497 1732.13 425.497Z" fill="white"/>
<path d="M1718.34 416.32H1762C1763.25 416.32 1764.24 415.311 1764.24 414.085C1764.24 412.839 1763.23 411.85 1762 411.85H1718.34C1717.09 411.85 1716.11 412.859 1716.11 414.085C1716.11 415.331 1717.11 416.32 1718.34 416.32Z" fill="white"/>
</g>
<g opacity="0.2">
<path d="M326.519 464C325.971 464 325.519 463.343 325.519 462.546V451.454C325.519 450.657 325.971 450 326.519 450C327.067 450 327.519 450.657 327.519 451.454V462.546C327.519 463.343 327.067 464 326.519 464Z" fill="white"/>
<path d="M332.064 457.715H320.972C320.174 457.715 319.518 457.223 319.518 456.636C319.518 456.05 320.174 455.558 320.972 455.558H332.064C332.861 455.558 333.518 456.05 333.518 456.636C333.518 457.223 332.861 457.715 332.064 457.715Z" fill="white"/>
</g>
<g opacity="0.05" clip-path="url(#clip1_5414_2)">
<rect x="-73.5183" y="595.736" width="159.599" height="117.65" fill="#7700D1"/>
<path d="M56.6272 633.331L131.717 636.045L159.376 662.537L197.77 700.244L204.139 709.719L206.686 720.355L204.139 737.915L189.043 740.009L185.054 741.205L56.6272 744.26V633.331Z" fill="#7700D1"/>
<path d="M206.477 718.978C206.395 718.978 206.313 718.978 206.231 718.978C190.787 717.334 180.464 698.843 180.014 698.062L182.103 694.528H198.571C199.882 694.528 200.947 695.596 200.947 696.911C200.947 698.226 199.882 699.295 198.571 699.295H186.445C190.009 704.39 197.506 713.266 206.723 714.252C208.034 714.376 208.976 715.567 208.853 716.882C208.689 718.074 207.665 718.978 206.477 718.978Z" fill="white"/>
<path d="M195.334 742.483H184.97C183.659 742.483 182.594 741.415 182.594 740.1C182.594 738.785 183.659 737.716 184.97 737.716H195.334C200.783 737.716 205.207 733.278 205.207 727.813V714.047C205.207 708.006 201.151 699.829 196.4 696.172L196.236 696.048L134.42 639.422C131.06 636.916 129.053 636.916 124.342 636.998C123.523 636.998 122.622 637.039 121.679 637.039H89.522C88.2111 637.039 87.146 635.971 87.146 634.656C87.146 633.341 88.2111 632.272 89.522 632.272H121.679C122.622 632.272 123.482 632.272 124.301 632.231C129.34 632.149 132.658 632.108 137.369 635.683L137.533 635.806L199.349 692.391C205.289 696.993 209.959 706.486 209.959 714.006V727.772C210 735.867 203.405 742.483 195.334 742.483Z" fill="white"/>
<path d="M134.215 742.483H88.457C87.1461 742.483 86.0811 741.415 86.0811 740.1C86.0811 738.785 87.1461 737.716 88.457 737.716H134.215C135.526 737.716 136.591 738.785 136.591 740.1C136.591 741.415 135.526 742.483 134.215 742.483Z" fill="white"/>
<path d="M159.572 768.001C144.292 768.001 131.839 755.509 131.839 740.182C131.839 724.854 144.292 712.362 159.572 712.362C174.852 712.362 187.305 724.854 187.305 740.182C187.346 755.509 174.893 768.001 159.572 768.001ZM159.572 717.129C146.914 717.129 136.591 727.484 136.591 740.182C136.591 752.879 146.914 763.235 159.572 763.235C172.23 763.235 182.553 752.879 182.553 740.182C182.553 727.484 172.271 717.129 159.572 717.129Z" fill="white"/>
<path d="M159.572 753.865C152.034 753.865 145.931 747.742 145.931 740.181C145.931 732.62 152.034 726.498 159.572 726.498C167.11 726.498 173.213 732.62 173.213 740.181C173.213 747.742 167.11 753.865 159.572 753.865ZM159.572 731.264C154.656 731.264 150.683 735.25 150.683 740.181C150.683 745.113 154.656 749.099 159.572 749.099C164.488 749.099 168.461 745.113 168.461 740.181C168.461 735.25 164.488 731.264 159.572 731.264Z" fill="white"/>
<path d="M135.69 717.129H102.262C100.951 717.129 99.8862 716.06 99.8862 714.745C99.8862 713.43 100.951 712.362 102.262 712.362H135.69C137.001 712.362 138.066 713.43 138.066 714.745C138.066 716.06 137.001 717.129 135.69 717.129Z" fill="white"/>
<path d="M167.642 683.72H102.262L99.886 681.337V645.874L102.262 643.491H130.036L131.675 644.148L169.281 679.611L167.642 683.72ZM104.638 678.954H161.661L129.094 648.257H104.638V678.954Z" fill="white"/>
<path d="M88.334 741.086C87.0231 741.086 85.958 740.017 85.958 738.703V634.943C85.958 633.628 87.0231 632.56 88.334 632.56C89.6448 632.56 90.7099 633.628 90.7099 634.943V738.703C90.7099 740.017 89.6448 741.086 88.334 741.086Z" fill="white"/>
<path d="M106.523 742.483H12.3851C11.0742 742.483 10.0091 741.415 10.0091 740.1C10.0091 738.785 11.0742 737.716 12.3851 737.716H106.523C107.833 737.716 108.898 738.785 108.898 740.1C108.898 741.415 107.833 742.483 106.523 742.483Z" fill="white"/>
<path d="M-12.9723 768.001C-28.2522 768.001 -40.7056 755.509 -40.7056 740.182C-40.7056 724.854 -28.2522 712.362 -12.9723 712.362C2.30766 712.362 14.761 724.854 14.761 740.182C14.761 755.509 2.30766 768.001 -12.9723 768.001ZM-12.9723 717.129C-25.6305 717.129 -35.9536 727.484 -35.9536 740.182C-35.9536 752.879 -25.6305 763.235 -12.9723 763.235C-0.314098 763.235 10.0091 752.879 10.0091 740.182C10.0091 727.484 -0.314098 717.129 -12.9723 717.129Z" fill="white"/>
<path d="M-12.9722 753.865C-20.5097 753.865 -26.6135 747.742 -26.6135 740.181C-26.6135 732.62 -20.5097 726.498 -12.9722 726.498C-5.43464 726.498 0.669136 732.62 0.669136 740.181C0.669136 747.742 -5.47561 753.865 -12.9722 753.865ZM-12.9722 731.264C-17.888 731.264 -21.8616 735.25 -21.8616 740.181C-21.8616 745.113 -17.888 749.099 -12.9722 749.099C-8.0564 749.099 -4.08279 745.113 -4.08279 740.181C-4.08279 735.25 -8.09736 731.264 -12.9722 731.264Z" fill="white"/>
<rect x="184.894" y="741.478" width="2.75615" height="8.71269" transform="rotate(-90 184.894 741.478)" fill="white"/>
<rect x="104.569" y="741.478" width="2.75615" height="28.6644" transform="rotate(-90 104.569 741.478)" fill="white"/>
<rect x="12.6561" y="741.478" width="2.75615" height="28.6644" transform="rotate(-90 12.6561 741.478)" fill="white"/>
<path d="M116.436 665.968C115.904 665.968 115.33 665.763 114.879 665.393C113.896 664.53 113.773 663.051 114.634 662.023L129.053 645.052C129.914 644.066 131.388 643.943 132.412 644.806C133.396 645.669 133.518 647.148 132.658 648.175L118.239 665.146C117.788 665.722 117.092 665.968 116.436 665.968Z" fill="white"/>
<path d="M117.296 683.721C116.764 683.721 116.19 683.515 115.74 683.145C114.756 682.282 114.633 680.803 115.494 679.776L131.798 660.585C132.658 659.599 134.133 659.476 135.157 660.339C136.14 661.202 136.263 662.681 135.403 663.708L119.14 682.899C118.648 683.433 117.993 683.721 117.296 683.721Z" fill="white"/>
<path d="M113.282 690.172H102.262V694.939H113.282V690.172Z" fill="white"/>
<path fill-rule="evenodd" clip-rule="evenodd" d="M-75.9429 627.615V714.745L-73.5669 717.129H88.7772L91.1532 714.745V627.615H86.4012V712.362H-71.1909V627.615H-75.9429ZM-31.0906 596.768H43.9997V592.001H-31.0906V596.768Z" fill="white"/>
<rect x="200.488" y="695.534" width="2.75615" height="5.30178" transform="rotate(90 200.488 695.534)" fill="white"/>
<rect x="208.243" y="715.037" width="2.78785" height="3.15145" transform="rotate(90 208.243 715.037)" fill="white"/>
<rect x="123.75" y="679.967" width="2.75342" height="8.83124" transform="rotate(90 123.75 679.967)" fill="white"/>
<path d="M-37.5705 645.722C-36.1188 645.722 -35.0204 646.116 -34.2753 646.903C-33.5174 647.677 -33.1384 648.817 -33.1384 650.325V655.128C-33.1384 656.636 -33.5174 657.783 -34.2753 658.57C-35.0204 659.344 -36.1188 659.731 -37.5705 659.731H-45.0857V645.722H-37.5705ZM-36.607 650.325C-36.607 649.124 -37.1851 648.524 -38.3413 648.524H-41.6171V656.929H-38.3413C-37.1851 656.929 -36.607 656.329 -36.607 655.128V650.325Z" fill="white"/>
<path d="M-21.9672 649.525C-21.9672 648.724 -22.3526 648.324 -23.1234 648.324H-26.3993C-27.17 648.324 -27.5554 648.724 -27.5554 649.525V655.929C-27.5554 656.729 -27.17 657.13 -26.3993 657.13H-23.1234C-22.3526 657.13 -21.9672 656.729 -21.9672 655.929V649.525ZM-18.4986 655.929C-18.4986 657.33 -18.807 658.35 -19.4236 658.991C-20.0274 659.618 -21.0037 659.931 -22.3526 659.931H-27.17C-28.5189 659.931 -29.5017 659.618 -30.1183 658.991C-30.7221 658.35 -31.024 657.33 -31.024 655.929V649.525C-31.024 648.124 -30.7221 647.11 -30.1183 646.483C-29.5017 645.842 -28.5189 645.522 -27.17 645.522H-22.3526C-21.0037 645.522 -20.0274 645.842 -19.4236 646.483C-18.807 647.11 -18.4986 648.124 -18.4986 649.525V655.929Z" fill="white"/>
<path d="M-16.3892 656.829C-12.8692 657.029 -10.4862 657.13 -9.2401 657.13C-8.94463 657.13 -8.71339 657.043 -8.54639 656.869C-8.36654 656.683 -8.27661 656.436 -8.27661 656.129V654.328H-12.7087C-14.0576 654.328 -15.0403 654.014 -15.6569 653.387C-16.2607 652.747 -16.5626 651.726 -16.5626 650.325V649.725C-16.5626 648.324 -16.2607 647.31 -15.6569 646.683C-15.0403 646.042 -14.0576 645.722 -12.7087 645.722H-5.94497V648.524H-11.9379C-12.7087 648.524 -13.0941 648.924 -13.0941 649.725V650.125C-13.0941 650.925 -12.7087 651.326 -11.9379 651.326H-8.46931C-7.21035 651.326 -6.2854 651.633 -5.69446 652.246C-5.10352 652.86 -4.80805 653.821 -4.80805 655.128V656.129C-4.80805 657.436 -5.10352 658.397 -5.69446 659.011C-6.2854 659.624 -7.21035 659.931 -8.46931 659.931C-9.12448 659.931 -9.81819 659.918 -10.5504 659.891L-12.3233 659.811C-13.6336 659.745 -14.9889 659.651 -16.3892 659.531V656.829Z" fill="white"/>
<path d="M3.09483 659.731H-0.373734V648.524H-4.42039V645.722H7.14149V648.524H3.09483V659.731Z" fill="white"/>
<path d="M10.1245 659.731H6.36694L11.4734 645.722H15.3274L20.4339 659.731H16.6763L15.8091 657.23H10.9917L10.1245 659.731ZM11.8588 654.628H14.942L13.4004 649.925L11.8588 654.628Z" fill="white"/>
<path d="M26.3044 655.528L29.5803 645.722H33.3379L28.2314 659.731H24.3774L19.2709 645.722H23.0285L26.3044 655.528Z" fill="white"/>
<path d="M45.5734 659.731H34.8787V645.722H45.5734V648.524H38.3473V651.226H44.0319V654.027H38.3473V656.929H45.5734V659.731Z" fill="white"/>
<path d="M47.6886 645.722H55.7819C57.1308 645.722 58.1072 646.042 58.7109 646.683C59.3276 647.31 59.6359 648.324 59.6359 649.725V651.526C59.6359 652.633 59.456 653.494 59.0963 654.108C58.7495 654.721 58.1907 655.128 57.4199 655.328L59.8286 659.731H56.071L53.8549 655.528H51.1572V659.731H47.6886V645.722ZM56.1673 649.725C56.1673 648.924 55.7819 648.524 55.0111 648.524H51.1572V652.727H55.0111C55.7819 652.727 56.1673 652.326 56.1673 651.526V649.725Z" fill="white"/>
<rect x="94.9202" y="633.271" width="2.75621" height="7.53412" transform="rotate(90 94.9202 633.271)" fill="white"/>
<rect x="86.9702" y="713.913" width="2.75615" height="25.9179" fill="white"/>
<path fill-rule="evenodd" clip-rule="evenodd" d="M27.4292 596.801H54.1268C71.8379 596.801 86.2157 611.073 86.3879 628.743H91.1881C91.0158 608.422 74.4889 592.001 54.1268 592.001H27.4292C25.801 592.001 24.1973 592.106 22.6245 592.31H26.506V596.814C26.8127 596.806 27.1204 596.801 27.4292 596.801Z" fill="white"/>
</g>
<defs>
<clipPath id="clip0_5414_2">
<rect width="1963" height="436" fill="white" transform="matrix(-1 0 0 1 1916 339)"/>
</clipPath>
<clipPath id="clip1_5414_2">
<rect width="360" height="176" fill="white" transform="translate(-150 592.001)"/>
</clipPath>
</defs>
</svg>
