<svg width="300" height="280" viewBox="0 0 300 280" fill="none" xmlns="http://www.w3.org/2000/svg">
<path d="M32.066 176.24H115.436L116.663 177.468V187.027L115.436 188.256H111.637V278.7L110.411 279.929H37.1132L35.8867 278.7V188.267H32.0878L30.8613 187.038V177.479L32.066 176.24ZM38.3289 277.471H109.162V272.882H38.3289V277.471ZM38.3289 270.424H109.162V265.835H38.3289V270.424ZM38.3289 263.367H109.162V258.777H38.3289V263.367ZM38.3289 256.32H109.162V251.731H38.3289V256.32ZM38.3289 249.263H109.162V244.674H38.3289V249.263ZM38.3289 242.216H109.162V237.627H38.3289V242.216ZM38.3289 235.158H109.162V230.569H38.3289V235.158ZM38.3289 228.111H109.162V223.522H38.3289V228.111ZM38.3289 221.054H109.162V216.465H38.3289V221.054ZM38.3289 214.007H109.162V209.418H38.3289V214.007ZM38.3289 206.95H109.162V202.36H38.3289V206.95ZM38.3289 199.903H109.162V195.313H38.3289V199.903ZM38.3289 192.845H109.162V188.267H38.3289V192.845ZM33.2926 185.798H37.0915H110.389H114.188V178.708H33.2818V185.798H33.2926Z" fill="white"/>
<path d="M123.805 176.24H207.175L208.401 177.468V187.027L207.175 188.256H203.376V213.463C203.376 214.148 202.822 214.692 202.149 214.692C201.476 214.692 200.923 214.138 200.923 213.463V202.36H130.089V278.7C130.089 279.385 129.535 279.929 128.862 279.929C128.19 279.929 127.636 279.374 127.636 278.7V188.267H123.837L122.61 187.038V177.479L123.805 176.24ZM200.912 199.903V195.313H130.078V199.903H200.912ZM130.078 192.845H200.912V188.267H130.078V192.845ZM125.042 185.798H128.841H202.138H205.937V178.708H125.031V185.798H125.042Z" fill="white"/>
<path fill-rule="evenodd" clip-rule="evenodd" d="M130.022 150.684H2.17179L0.945312 149.455V148.224H3.39832V148.226H128.784V124.748H34.3941V122.291H130.022L131.248 123.519V149.455L130.022 150.684Z" fill="white"/>
<path fill-rule="evenodd" clip-rule="evenodd" d="M238.372 148.224V149.455L237.145 150.684H109.295L108.069 149.455V123.519L109.295 122.291H208.557V124.748H110.522V148.226H235.908V148.224H238.372Z" fill="white"/>
<path d="M2.07606 135.253H55.695C56.379 135.253 56.9217 135.808 56.9217 136.482C56.9217 137.167 56.368 137.711 55.695 137.711H3.30254V156.437H9.27225H229.968H235.938V137.722H183.545C182.861 137.722 182.319 137.167 182.319 136.493C182.319 135.808 182.872 135.264 183.545 135.264H237.164L238.391 136.493V157.687L237.164 158.916H231.194V213.311C231.194 213.996 230.641 214.54 229.968 214.54C229.295 214.54 228.741 213.985 228.741 213.311V158.916H10.5097V277.471H229.979C230.662 277.471 231.205 278.026 231.205 278.7C231.205 279.374 230.651 279.929 229.979 279.929H9.28312L8.05665 278.7V158.916H2.08688L0.860352 157.687V136.482L2.07606 135.253Z" fill="white"/>
<path d="M238.391 131.306H0.533203V148.224H238.391V131.306Z" fill="#7700D1"/>
<path d="M220.331 124.711H49.1191V141.107H220.331V124.711Z" fill="#7700D1"/>
<path fill-rule="evenodd" clip-rule="evenodd" d="M55.9862 148.224V148.384H53.5965V148.224H55.9862ZM36.1783 124.713V122.317C35.8248 122.3 35.4689 122.291 35.1109 122.291H21.7356C10.2065 122.291 0.860352 131.645 0.860352 143.184V148.384H3.25002V143.184C3.25002 132.966 11.5263 124.682 21.7356 124.682H35.1109C35.4692 124.682 35.8251 124.693 36.1783 124.713Z" fill="white"/>
<path fill-rule="evenodd" clip-rule="evenodd" d="M183.265 148.224V148.384H185.654V148.224H183.265ZM203.073 124.713V122.317C203.426 122.3 203.782 122.291 204.14 122.291H217.515C229.045 122.291 238.391 131.645 238.391 143.184V148.384H236.001V143.184C236.001 132.966 227.725 124.682 217.515 124.682H204.14C203.782 124.682 203.426 124.693 203.073 124.713Z" fill="white"/>
<path fill-rule="evenodd" clip-rule="evenodd" d="M176.749 239.664V218.32H179.321V239.664H176.749ZM183.38 245.288V242.723H205.139V245.288H183.38ZM211.77 218.32H209.209V239.664H211.77V218.32ZM202.527 210.2H186.071V212.777H202.527V210.2Z" fill="white"/>
<path fill-rule="evenodd" clip-rule="evenodd" d="M186.468 224.675H191.506H196.856H201.894L203.225 223.38V213.261C203.225 212.547 202.628 211.965 201.894 211.965C201.161 211.965 200.564 212.547 200.564 213.261V222.062H196.856H191.506H187.798V213.261C187.798 212.547 187.202 211.965 186.468 211.965C185.734 211.965 185.138 212.547 185.138 213.261V223.38L186.468 224.675Z" fill="white"/>
<path fill-rule="evenodd" clip-rule="evenodd" d="M187.01 212.998V210.232C186.772 210.211 186.53 210.2 186.286 210.2H184.816C180.361 210.2 176.749 213.815 176.749 218.275V218.32H179.496C179.496 218.305 179.496 218.29 179.496 218.275C179.496 215.334 181.878 212.949 184.816 212.949H186.286C186.532 212.949 186.774 212.966 187.01 212.998Z" fill="white"/>
<path fill-rule="evenodd" clip-rule="evenodd" d="M201.509 212.982V210.222C201.705 210.207 201.904 210.2 202.105 210.2H203.881C208.337 210.2 211.949 213.815 211.949 218.275V218.32H209.202C209.202 218.305 209.202 218.29 209.202 218.275C209.202 215.334 206.82 212.949 203.881 212.949H202.105C201.903 212.949 201.704 212.96 201.509 212.982Z" fill="white"/>
<path fill-rule="evenodd" clip-rule="evenodd" d="M199.594 242.703V245.288H204.832C208.664 245.288 211.77 242.179 211.77 238.344V238.305H209.188C209.188 238.317 209.188 238.331 209.188 238.344C209.188 240.751 207.238 242.703 204.832 242.703H199.594Z" fill="white"/>
<path fill-rule="evenodd" clip-rule="evenodd" d="M188.925 242.703V245.288H183.687C179.855 245.288 176.749 242.179 176.749 238.344V238.305H179.331C179.331 238.317 179.331 238.331 179.331 238.344C179.331 240.751 181.281 242.703 183.687 242.703H188.925Z" fill="white"/>
<path fill-rule="evenodd" clip-rule="evenodd" d="M159.972 274.304V252.96H162.544V274.304H159.972ZM166.602 279.928V277.363H188.362V279.928H166.602ZM194.993 252.96H192.432V274.304H194.993V252.96ZM185.749 244.84H169.294V247.417H185.749V244.84Z" fill="white"/>
<path fill-rule="evenodd" clip-rule="evenodd" d="M169.692 259.315H174.73H180.08H185.119L186.449 258.02V247.901C186.449 247.186 185.852 246.605 185.119 246.605C184.385 246.605 183.788 247.186 183.788 247.901V256.702H180.08H174.73H171.022V247.901C171.022 247.186 170.425 246.605 169.692 246.605C168.958 246.605 168.361 247.186 168.361 247.901V258.02L169.692 259.315Z" fill="white"/>
<path fill-rule="evenodd" clip-rule="evenodd" d="M170.233 247.638V244.872C169.995 244.851 169.753 244.84 169.509 244.84H168.039C163.584 244.84 159.972 248.455 159.972 252.915V252.96H162.718C162.718 252.945 162.718 252.93 162.718 252.915C162.718 249.973 165.1 247.589 168.039 247.589H169.509C169.754 247.589 169.996 247.606 170.233 247.638Z" fill="white"/>
<path fill-rule="evenodd" clip-rule="evenodd" d="M184.731 247.622V244.862C184.926 244.847 185.123 244.84 185.321 244.84H187.112C191.568 244.84 195.179 248.455 195.179 252.915V252.96H192.433C192.433 252.945 192.433 252.93 192.433 252.915C192.433 249.973 190.051 247.589 187.112 247.589H185.321C185.122 247.589 184.925 247.6 184.731 247.622Z" fill="white"/>
<path fill-rule="evenodd" clip-rule="evenodd" d="M182.816 277.343V279.928H188.055C191.887 279.928 194.993 276.819 194.993 272.984V272.945H192.411C192.411 272.957 192.411 272.97 192.411 272.984C192.411 275.391 190.461 277.343 188.055 277.343H182.816Z" fill="white"/>
<path fill-rule="evenodd" clip-rule="evenodd" d="M172.148 277.343V279.928H166.909C163.078 279.928 159.972 276.819 159.972 272.984V272.945H162.554C162.554 272.957 162.554 272.97 162.554 272.984C162.554 275.391 164.504 277.343 166.909 277.343H172.148Z" fill="white"/>
<path fill-rule="evenodd" clip-rule="evenodd" d="M209.407 239.664V218.32H211.979V239.664H209.407ZM216.038 245.288V242.723H237.798V245.288H216.038ZM244.429 218.32H241.868V239.664H244.429V218.32ZM235.185 210.2H218.73V212.777H235.185V210.2Z" fill="white"/>
<path fill-rule="evenodd" clip-rule="evenodd" d="M219.127 224.675H224.165H229.515H234.554L235.884 223.38V213.261C235.884 212.547 235.288 211.965 234.554 211.965C233.82 211.965 233.224 212.547 233.224 213.261V222.062H229.515H224.165H220.457V213.261C220.457 212.547 219.861 211.965 219.127 211.965C218.393 211.965 217.797 212.547 217.797 213.261V223.38L219.127 224.675Z" fill="white"/>
<path fill-rule="evenodd" clip-rule="evenodd" d="M219.668 212.981V210.221C219.475 210.207 219.281 210.2 219.084 210.2H217.279C212.824 210.2 209.212 213.815 209.212 218.275V218.32H211.959C211.959 218.305 211.959 218.29 211.959 218.275C211.959 215.334 214.341 212.949 217.279 212.949H219.084C219.281 212.949 219.476 212.96 219.668 212.981Z" fill="white"/>
<path fill-rule="evenodd" clip-rule="evenodd" d="M234.167 212.998V210.232C234.405 210.211 234.647 210.2 234.89 210.2H236.361C240.816 210.2 244.428 213.815 244.428 218.275L244.428 218.32H241.681C241.682 218.305 241.682 218.29 241.682 218.275C241.682 215.334 239.299 212.949 236.361 212.949H234.89C234.645 212.949 234.403 212.966 234.167 212.998Z" fill="white"/>
<path fill-rule="evenodd" clip-rule="evenodd" d="M232.252 242.703V245.288H237.491C241.322 245.288 244.429 242.179 244.429 238.344L244.428 238.305H241.846C241.847 238.317 241.847 238.331 241.847 238.344C241.847 240.751 239.897 242.703 237.491 242.703H232.252Z" fill="white"/>
<path fill-rule="evenodd" clip-rule="evenodd" d="M221.584 242.703V245.288H216.345C212.513 245.288 209.407 242.179 209.407 238.344V238.305H211.989C211.989 238.317 211.989 238.331 211.989 238.344C211.989 240.751 213.939 242.703 216.345 242.703H221.584Z" fill="white"/>
<path d="M232.676 212.74H223.415V222.063H232.676V212.74Z" fill="#7700D1"/>
<path d="M235.883 224.675H223.415V242.629H235.883V224.675Z" fill="#7700D1"/>
<path fill-rule="evenodd" clip-rule="evenodd" d="M192.63 274.304V252.96H195.202V274.304H192.63ZM199.261 279.928V277.363H221.02V279.928H199.261ZM227.651 252.96H225.09V274.304H227.651V252.96ZM218.407 244.84H201.953V247.417H218.407V244.84Z" fill="white"/>
<path fill-rule="evenodd" clip-rule="evenodd" d="M202.35 259.315H207.388H212.738H217.776L219.106 258.02V247.901C219.106 247.186 218.51 246.605 217.776 246.605C217.042 246.605 216.446 247.186 216.446 247.901V256.702H212.738H207.388H203.679V247.901C203.679 247.186 203.083 246.605 202.35 246.605C201.616 246.605 201.02 247.186 201.02 247.901V258.02L202.35 259.315Z" fill="white"/>
<path fill-rule="evenodd" clip-rule="evenodd" d="M202.891 247.638V244.872C202.653 244.851 202.412 244.84 202.168 244.84H200.532C196.077 244.84 192.465 248.455 192.465 252.915V252.96H195.212C195.212 252.945 195.212 252.93 195.212 252.915C195.212 249.973 197.594 247.589 200.532 247.589H202.168C202.414 247.589 202.655 247.606 202.891 247.638Z" fill="white"/>
<path fill-rule="evenodd" clip-rule="evenodd" d="M217.391 247.638V244.872C217.629 244.851 217.87 244.84 218.114 244.84H219.769C224.225 244.84 227.837 248.455 227.837 252.915V252.96H225.09C225.09 252.945 225.09 252.93 225.09 252.915C225.09 249.973 222.708 247.589 219.769 247.589H218.114C217.869 247.589 217.627 247.606 217.391 247.638Z" fill="white"/>
<path fill-rule="evenodd" clip-rule="evenodd" d="M215.475 277.343V279.928H220.713C224.545 279.928 227.651 276.819 227.651 272.984V272.945H225.069C225.07 272.957 225.07 272.97 225.07 272.984C225.07 275.391 223.119 277.343 220.713 277.343H215.475Z" fill="white"/>
<path fill-rule="evenodd" clip-rule="evenodd" d="M204.806 277.343V279.928H199.568C195.736 279.928 192.63 276.819 192.63 272.984V272.945H195.212C195.212 272.957 195.212 272.97 195.212 272.984C195.212 275.391 197.162 277.343 199.568 277.343H204.806Z" fill="white"/>
<path fill-rule="evenodd" clip-rule="evenodd" d="M225.597 274.304V252.96H228.169V274.304H225.597ZM232.228 279.928V277.363H253.987V279.928H232.228ZM260.618 252.96H258.057V274.304H260.618V252.96ZM251.374 244.84H234.92V247.417H251.374V244.84Z" fill="white"/>
<path fill-rule="evenodd" clip-rule="evenodd" d="M235.316 259.315H240.354H245.704H250.743L252.073 258.02V247.901C252.073 247.186 251.477 246.605 250.743 246.605C250.009 246.605 249.413 247.186 249.413 247.901V256.702H245.704H240.354H236.646V247.901C236.646 247.186 236.05 246.605 235.316 246.605C234.582 246.605 233.986 247.186 233.986 247.901V258.02L235.316 259.315Z" fill="white"/>
<path fill-rule="evenodd" clip-rule="evenodd" d="M235.858 247.638V244.872C235.62 244.851 235.378 244.84 235.135 244.84H233.501C229.046 244.84 225.434 248.455 225.434 252.915V252.96H228.18C228.18 252.945 228.18 252.93 228.18 252.915C228.18 249.973 230.562 247.589 233.501 247.589H235.135C235.38 247.589 235.621 247.606 235.858 247.638Z" fill="white"/>
<path fill-rule="evenodd" clip-rule="evenodd" d="M250.356 247.638V244.872C250.595 244.851 250.837 244.84 251.08 244.84H252.551C257.006 244.84 260.618 248.455 260.618 252.915L260.618 252.96H257.871C257.872 252.945 257.872 252.93 257.872 252.915C257.872 249.973 255.489 247.589 252.551 247.589H251.08C250.835 247.589 250.593 247.606 250.356 247.638Z" fill="white"/>
<path fill-rule="evenodd" clip-rule="evenodd" d="M248.441 277.343V279.928H253.68C257.512 279.928 260.618 276.819 260.618 272.984L260.618 272.945H258.036C258.036 272.957 258.036 272.97 258.036 272.984C258.036 275.391 256.086 277.343 253.68 277.343H248.441Z" fill="white"/>
<path fill-rule="evenodd" clip-rule="evenodd" d="M237.773 277.343V279.928H232.534C228.703 279.928 225.597 276.819 225.597 272.984V272.945H228.179C228.179 272.957 228.179 272.97 228.179 272.984C228.179 275.391 230.129 277.343 232.534 277.343H237.773Z" fill="white"/>
<path d="M119.318 94.9146C119.129 94.7423 114.69 90.4985 110.188 84.2188C104.054 75.6529 100.948 67.7602 100.948 60.7446C100.948 49.9549 109.733 41.1853 120.541 41.1853C131.35 41.1853 140.134 49.9549 140.134 60.7446C140.134 67.6976 137.028 75.5902 130.895 84.1719C126.392 90.4672 121.953 94.7423 121.765 94.9146H119.318ZM120.541 44.7401C111.694 44.7401 104.509 51.928 104.509 60.7446C104.509 73.4135 116.588 87.0063 120.541 91.1092C124.479 86.975 136.573 73.2882 136.573 60.7446C136.573 51.9124 129.389 44.7401 120.541 44.7401Z" fill="white"/>
<path d="M120.541 69.7649C115.552 69.7649 111.505 65.7246 111.505 60.7447C111.505 55.7649 115.552 51.7246 120.541 51.7246C125.529 51.7246 129.576 55.7649 129.576 60.7447C129.576 65.7246 125.529 69.7649 120.541 69.7649ZM120.541 55.2794C117.513 55.2794 115.066 57.7224 115.066 60.7447C115.066 63.7671 117.529 66.21 120.541 66.21C123.568 66.21 126.015 63.7515 126.015 60.7447C126.015 57.738 123.568 55.2794 120.541 55.2794Z" fill="white"/>
<path d="M119.658 93.9958C136.069 95.4342 169.317 114.483 204.752 48.8789C240.188 -16.7251 285.094 14.4527 278.548 55.3465C272.002 96.2402 349.013 64.3364 316.495 115.239C289.076 158.159 423.701 191.449 434.437 154.78" stroke="white" stroke-width="2" stroke-dasharray="6 3"/>
</svg>
